<svg version="1" id="Layer_1" xmlns="http://www.w3.org/2000/svg" viewBox="0 0 600 400"><style>.st0{fill:#989ca0}</style><path class="st0" d="M234.4 213.1h15.7l-2.6-28.3zM350.5 213.1h16.7l-2.5-28.3z"/><path class="st0" d="M472.4 185.9l-2.7-14.1-11 59.1h-21.5l-8.9-21.5-2.7-7.9-2.7-8.9-2.2 12.5-4.7 25.7h-18.9l11.4-63.3h21.9l10 23.6 2.2 7.9 2.7 7.9.5-6.3 1.1-7.9 5.3-25h16.7l-1.6-7.3C450.6 83 378.4 26.4 299.5 26.8h-6.9l11 9.4c24.6 23.7 44.8 51.7 61.1 81.6l8.9 16.7-12.5-15.6c-22.2-27-53.1-58.8-82.1-78.6l-14.1-10.5-13.6 4.2-14.1 4.2 12.5 7.3c30 17.5 55.1 42 78.5 67.5l13.2 15.8-15.6-12.5c-28.7-21.7-62.3-46.2-95.2-60.7L215.3 49l-12.5 8-12.5 8.9 14.5 4.3c33.3 12.4 64.4 30.2 92.5 51.8l15.8 12.5-17.8-8.9c-33.3-17.2-68.1-31.8-104.6-40.8l-16.3-4.2-5.8 6.2c-55.1 62.1-55.5 163.3 0 225.6l5.3 6.3 16.7-4.2c34.6-6.9 72.4-25.6 104.6-40.3l17.8-9.4-16.3 13.2c-27.2 20.6-60.1 39.6-92.1 51.8l-14.7 4.2 12.5 8.9 12.5 7.9 15.2-6.9c32.3-14.7 67.5-38.5 95.2-60.7l15.6-12.1-13.1 15.2c-23.7 25.2-48.3 50.4-78.5 68l-12.5 6.9v.5l13.1 4.2 14.7 3.6 14.1-10c31.1-22.1 57.8-49.7 82.1-78.9l12.5-15.6-8.9 17.2c-15.6 28.3-37.6 59-61.1 81.1l-11 9.4 6.9.5c102.1-.4 180.5-86.5 173.2-187.3zm-298.7 45.5l11.4-63.3h20.5l-12.1 63.3h-19.8zm79.1 0l-1.1-8.9h-22.5l-4.2 8.9h-21.9l36.1-63.3h23.6l11.4 63.3h-21.4zm53.8 0h-20.5l9.4-47.7h-16.7l3.6-16.3h52.2l-3.1 16.3h-16.3l-8.6 47.7zm62.6 0l-1.1-8.9h-21.9l-4.2 8.9h-22.5l36.6-63.3h23l12.1 63.3h-22z"/></svg>