<svg xmlns="http://www.w3.org/2000/svg" viewBox="0 0 201 35" style="enable-background:new 0 0 201 35" xml:space="preserve"><path d="M24.3 14.1H24c-.1.1-.2.3-.3.5 2.4 0 4.8.2 7.1.6l-.7.8c-2.1-.4-4.3-.6-6.4-.6h-.5c-.1.1-.3.4-.5.6h1.2c1.9 0 3.8.2 5.7.5l-.7.7c-1.6-.2-3.3-.4-5-.4-.6 0-1.2 0-1.8.1-.1.2-.5.5-.6.6.9-.1 1.8-.1 2.7-.1 1.4 0 2.8.1 4.2.3l-.7.7c-1-.1-2.1-.2-3.1-.2-2.4-.1-4.8.6-6.8 1.9 2.3 2.3 5.3 3.6 8.6 3.5h.3l-1.1 1.1c-4.9-1-9.5-2.9-13.6-5.7-2.6-1.9-5.5-3.5-8.5-4.8v-.8l2.1.9.7-.6 6.8 3.1-.4.4-3.5-1.5-.3.3 1.8 1c1.1.7 2.4 1.2 3.8 1.2 2.4 0 4.5-1.7 5.9-4.6 1.1-.1 2.3-.2 3.5-.2 2.8 0 5.6.3 8.3.8l-.7.7c-2.5-.5-4.9-.8-7.2-.8m-6.7 19.5c-8.9 0-16.1-7.2-16.1-16.1 0-8.9 7.2-16.1 16.1-16.1 8.9 0 16.1 7.2 16.1 16.1 0 8.9-7.2 16.1-16.1 16.1m0-33.2C8.2.3.5 8 .5 17.5c0 9.5 7.7 17.1 17.1 17.1 9.5 0 17.1-7.7 17.1-17.1C34.8 8 27.1.4 17.6.4c.1 0 .1 0 0 0m45.3 23.9h9.8v4.6h-15V6.1H63l-.1 18.2zm21.8-11.8h4.9V29H85v-2c-.7 1.3-2.1 2.4-4.7 2.4-4.2 0-6.4-1.9-6.4-7.3v-9.6h4.9v9.4c0 2.2.9 3.2 2.9 3.2 1.8 0 2.9-1 2.9-3.2v-9.4zm8.7-.6c0-4 2.5-6.1 6.5-6.1.7 0 1.4.1 2.1.2v4s-.7-.1-1.3-.1c-1.5 0-2.4.5-2.4 2v.7h3.6v4h-3.6V29h-4.9V16.5h-2.5v-4h2.5v-.6m17.2.6h3.8v4h-3.8v6.4c0 1.8.9 2.2 2.4 2.2.6 0 1.4-.1 1.4-.1v4c-.8.2-1.6.3-2.4.3-4 0-6.3-1.8-6.3-5.8v-7h-2.5v-4h2.5V7.7h4.9v4.8zm14.7-.5c4.2 0 6.4 1.9 6.4 7.3v9.6h-4.9v-9.4c0-2.2-.9-3.2-3-3.2-1.9 0-3 1-3 3.2v9.4h-4.9V6.1h5v8c.9-1.5 2.6-2.3 4.4-2.1m18.9 10.5c0 1.8-1.7 3.1-4.3 3.1-1.3 0-2-.6-2-1.7 0-.8.5-1.6 2.2-1.8l2.8-.4c.4-.1.9-.1 1.3-.3v1.1zM141.5 12c-4.9 0-7.2 1.9-7.4 5.4h4.8c.1-.9.6-1.6 2.6-1.6 1.8 0 2.6.6 2.6 1.5 0 .8-.5 1.1-1.7 1.2l-3.1.3c-4.2.5-6.2 2.2-6.2 5.4 0 3 1.8 5.3 5.7 5.3 2.2.2 4.3-.8 5.6-2.5v2.1h4.5v-11c0-4.5-2.6-6.1-7.4-6.1m18.8 0c4.3 0 6.5 1.9 6.5 7.3v9.6h-4.9v-9.4c0-2.2-.9-3.2-3-3.2-1.9 0-3 1-3 3.2v9.4H151V12.5h4.6v1.9c.7-1.3 2.1-2.4 4.7-2.4m16.9 6.6c4.2.6 6.3 1.9 6.3 5.3 0 3.5-2.4 5.5-7.6 5.5-5.6 0-7.6-2.3-7.7-5.6h4.9c.1 1.2 1 1.8 2.9 1.8s2.7-.5 2.7-1.4c0-.8-.7-1.2-2.4-1.5l-1.7-.2c-3.6-.5-5.7-1.9-5.7-5.2 0-3.1 2.3-5.5 7.2-5.5 4.5 0 6.9 1.8 7.2 5.4h-4.8c-.2-.9-.7-1.5-2.4-1.5-1.6 0-2.3.6-2.3 1.3s.4 1.1 1.8 1.3l1.6.3m18.6 3.9c0 1.8-1.7 3.1-4.3 3.1-1.3 0-2-.6-2-1.7 0-.8.5-1.6 2.2-1.8l2.8-.4c.4-.1.9-.1 1.3-.3v1.1zM193.1 12c-4.9 0-7.2 1.9-7.4 5.4h4.8c.1-.9.6-1.6 2.6-1.6 1.8 0 2.6.6 2.6 1.5 0 .8-.5 1.1-1.7 1.2l-3.1.3c-4.2.5-6.2 2.2-6.2 5.4 0 3 1.8 5.3 5.7 5.3 2.2.2 4.3-.8 5.6-2.5v2.1h4.5v-11c0-4.5-2.6-6.1-7.4-6.1" style="fill:#fff"/></svg>