<svg width="163" height="36" viewBox="0 0 163 36" fill="none" xmlns="http://www.w3.org/2000/svg">
    <g clip-path="url(#clip0_373_192)">
        <path d="M104.984 5.70084H102.204V11.5626C102.204 12.0267 102.309 12.3635 102.518 12.5731C102.727 12.7677 103.034 12.88 103.437 12.9099C103.855 12.9249 104.371 12.9174 104.984 12.8874V15.0656C103.131 15.2901 101.801 15.133 100.994 14.594C100.187 14.0401 99.7833 13.0297 99.7833 11.5626V5.70084H97.7211V3.36551H99.7833V0.732401L102.204 0.0138388V3.36551H104.984V5.70084Z" fill="#2A343E"/>
        <path d="M106.731 15.1837V3.24737H109.152V15.1837H106.731Z" fill="#2A343E"/>
        <path d="M116.805 15.1212C115.116 15.1212 113.704 14.5524 112.568 13.4146C111.447 12.2769 110.887 10.8772 110.887 9.21555C110.887 7.5389 111.447 6.1392 112.568 5.01644C113.704 3.87872 115.116 3.30986 116.805 3.30986C117.896 3.30986 118.889 3.57183 119.786 4.09578C120.683 4.61974 121.355 5.32333 121.803 6.20657L119.719 7.41914C119.465 6.88022 119.076 6.46106 118.553 6.16165C118.045 5.84728 117.455 5.6901 116.782 5.6901C115.796 5.6901 114.967 6.02692 114.294 6.70058C113.637 7.37423 113.308 8.21255 113.308 9.21555C113.308 10.2185 113.637 11.0569 114.294 11.7305C114.967 12.4042 115.796 12.741 116.782 12.741C117.44 12.741 118.03 12.5838 118.553 12.2694C119.091 11.9551 119.495 11.5359 119.764 11.012L121.848 12.2021C121.37 13.1003 120.683 13.8114 119.786 14.3353C118.889 14.8593 117.896 15.1212 116.805 15.1212Z" fill="#2A343E"/>
        <path d="M132.899 15.0656H130.007L125.412 9.64219V15.0656H122.991V0.000170752H125.412V8.56435L129.761 3.36551H132.72L127.788 9.10327L132.899 15.0656Z" fill="#2A343E"/>
        <path d="M135.087 10.2485C135.266 11.1018 135.677 11.7605 136.32 12.2245C136.962 12.6736 137.747 12.8982 138.673 12.8982C139.959 12.8982 140.922 12.4341 141.565 11.506L143.56 12.6736C142.454 14.3054 140.818 15.1212 138.651 15.1212C136.828 15.1212 135.356 14.5673 134.235 13.4596C133.114 12.3368 132.554 10.9221 132.554 9.21555C132.554 7.5389 133.107 6.1392 134.213 5.01644C135.318 3.87872 136.738 3.30986 138.472 3.30986C140.115 3.30986 141.46 3.8862 142.506 5.0389C143.567 6.19159 144.098 7.59129 144.098 9.238C144.098 9.49249 144.068 9.82932 144.008 10.2485H135.087ZM135.064 8.27243H141.655C141.49 7.35926 141.109 6.67064 140.511 6.20657C139.929 5.74249 139.241 5.51046 138.449 5.51046C137.553 5.51046 136.805 5.75746 136.208 6.25147C135.61 6.74549 135.229 7.41914 135.064 8.27243Z" fill="#2A343E"/>
        <path d="M151.684 5.70084H148.904V11.5626C148.904 12.0267 149.009 12.3635 149.218 12.5731C149.427 12.7677 149.733 12.88 150.137 12.9099C150.555 12.9249 151.071 12.9174 151.684 12.8874V15.0656C149.83 15.2901 148.5 15.133 147.694 14.594C146.887 14.0401 146.483 13.0297 146.483 11.5626V5.70084H144.421V3.36551H146.483V0.718733L148.904 0.000170752V3.36551H151.684V5.70084Z" fill="#2A343E"/>
        <path d="M155.424 6.70058C155.424 7.07483 155.626 7.37423 156.03 7.59878C156.448 7.80836 156.949 7.99549 157.532 8.16016C158.129 8.30986 158.727 8.4895 159.325 8.69908C159.923 8.90866 160.423 9.26794 160.827 9.77692C161.245 10.2709 161.454 10.8997 161.454 11.6632C161.454 12.741 161.036 13.5868 160.199 14.2006C159.377 14.8143 158.339 15.1212 157.083 15.1212C155.977 15.1212 155.028 14.8892 154.236 14.4251C153.444 13.9611 152.869 13.3173 152.51 12.494L154.595 11.2814C154.984 12.3593 155.813 12.8982 157.083 12.8982C158.353 12.8982 158.989 12.479 158.989 11.6407C158.989 11.2814 158.779 10.9895 158.361 10.7649C157.957 10.5404 157.457 10.3533 156.859 10.2036C156.276 10.0389 155.686 9.85177 155.088 9.64219C154.49 9.43261 153.982 9.0883 153.564 8.60926C153.16 8.11525 152.959 7.49399 152.959 6.74549C152.959 5.71255 153.347 4.88171 154.124 4.25297C154.916 3.62423 155.895 3.30986 157.061 3.30986C157.987 3.30986 158.809 3.51944 159.527 3.9386C160.259 4.34279 160.819 4.91165 161.208 5.64519L159.168 6.7904C158.779 5.9371 158.077 5.51046 157.061 5.51046C156.598 5.51046 156.209 5.61525 155.895 5.82483C155.581 6.01944 155.424 6.31135 155.424 6.70058Z" fill="#2A343E"/>
        <path d="M106.395 0C106.395 0.00455516 106.395 0.00911745 106.395 0.0136868C106.395 0.432849 106.544 0.799615 106.843 1.11399C107.157 1.41339 107.523 1.56309 107.941 1.56309C108.36 1.56309 108.718 1.41339 109.017 1.11399C109.331 0.799615 109.488 0.432849 109.488 0.0136868C109.488 0.00911745 109.488 0.00455516 109.488 0H106.395Z" fill="#2A343E"/>
        <path d="M131.131 22.8719L126.057 35H123.853L125.628 30.8978L122.344 22.8719H124.666L126.782 28.6238L128.927 22.8719H131.131Z" fill="#DEAE69"/>
        <path d="M139.061 26.8105C139.061 27.1078 139.041 27.3753 139.001 27.6131H133.01C133.059 28.2076 133.266 28.6734 133.631 29.0102C133.996 29.3471 134.445 29.5156 134.977 29.5156C135.747 29.5156 136.294 29.1836 136.619 28.5198H138.853C138.617 29.3125 138.163 29.9664 137.492 30.4817C136.822 30.987 135.998 31.2397 135.022 31.2397C134.233 31.2397 133.522 31.0663 132.891 30.7195C132.27 30.3628 131.782 29.8624 131.427 29.2183C131.081 28.5743 130.909 27.8311 130.909 26.9889C130.909 26.1368 131.081 25.3887 131.427 24.7446C131.772 24.1005 132.255 23.6051 132.876 23.2583C133.498 22.9115 134.213 22.7381 135.022 22.7381C135.801 22.7381 136.496 22.9066 137.108 23.2434C137.729 23.5803 138.207 24.0609 138.543 24.6851C138.888 25.2995 139.061 26.0079 139.061 26.8105ZM136.915 26.216C136.905 25.681 136.713 25.2549 136.338 24.9378C135.964 24.6108 135.505 24.4473 134.962 24.4473C134.45 24.4473 134.016 24.6059 133.661 24.923C133.315 25.2301 133.103 25.6611 133.024 26.216H136.915Z" fill="#DEAE69"/>
        <path d="M139.863 26.9592C139.863 26.1268 140.026 25.3887 140.352 24.7446C140.687 24.1005 141.136 23.6051 141.698 23.2583C142.27 22.9115 142.906 22.7381 143.606 22.7381C144.218 22.7381 144.75 22.862 145.204 23.1097C145.668 23.3574 146.037 23.6695 146.314 24.046V22.8719H148.4V31.1059H146.314V29.902C146.047 30.2885 145.678 30.6105 145.204 30.8681C144.741 31.1158 144.203 31.2397 143.591 31.2397C142.901 31.2397 142.27 31.0613 141.698 30.7046C141.136 30.3479 140.687 29.8475 140.352 29.2035C140.026 28.5495 139.863 27.8014 139.863 26.9592ZM146.314 26.9889C146.314 26.4836 146.215 26.0525 146.018 25.6958C145.821 25.3292 145.554 25.0518 145.219 24.8635C144.884 24.6653 144.524 24.5662 144.139 24.5662C143.754 24.5662 143.399 24.6604 143.074 24.8486C142.748 25.0369 142.482 25.3143 142.275 25.681C142.078 26.0377 141.979 26.4637 141.979 26.9592C141.979 27.4546 142.078 27.8906 142.275 28.2671C142.482 28.6337 142.748 28.9161 143.074 29.1143C143.409 29.3125 143.764 29.4115 144.139 29.4115C144.524 29.4115 144.884 29.3174 145.219 29.1291C145.554 28.931 145.821 28.6535 146.018 28.2968C146.215 27.9302 146.314 27.4942 146.314 26.9889Z" fill="#DEAE69"/>
        <path d="M151.589 24.1501C151.855 23.7141 152.2 23.3723 152.624 23.1245C153.058 22.8768 153.551 22.753 154.104 22.753V24.9378H153.556C152.905 24.9378 152.412 25.0914 152.077 25.3986C151.751 25.7057 151.589 26.2408 151.589 27.0038V31.1059H149.517V22.8719H151.589V24.1501Z" fill="#DEAE69"/>
        <path d="M158.156 31.2019C157.486 31.2019 156.884 31.083 156.351 30.8452C155.819 30.5975 155.395 30.2656 155.079 29.8494C154.773 29.4332 154.493 28.9725 154.463 28.4672H156.662C156.701 28.7842 156.854 29.0468 157.121 29.2549C157.397 29.463 157.737 29.567 158.141 29.567C158.536 29.567 158.842 29.4877 159.059 29.3292C159.286 29.1707 159.399 28.9675 159.399 28.7198C159.399 28.4523 159.261 28.2541 158.985 28.1253C158.718 27.9866 158.289 27.838 157.698 27.6794C157.086 27.5308 156.583 27.3772 156.189 27.2187C155.804 27.0601 155.469 26.8174 155.183 26.4904C154.906 26.1634 154.768 25.7225 154.768 25.1676C154.768 24.7118 154.897 24.2956 155.153 23.9191C155.419 23.5426 155.794 23.2453 156.277 23.0273C156.77 22.8094 157.347 22.7004 158.008 22.7004C158.985 22.7004 159.764 22.9481 160.346 23.4435C160.928 23.929 161.248 24.5879 161.307 25.4203H159.325C159.295 25.0933 159.157 24.8357 158.911 24.6474C158.674 24.4492 158.353 24.3501 157.949 24.3501C157.574 24.3501 157.283 24.4195 157.076 24.5582C156.879 24.6969 156.78 24.8902 156.78 25.1379C156.78 25.4153 156.918 25.6283 157.195 25.777C157.471 25.9157 157.9 26.0594 158.482 26.208C159.073 26.3566 159.562 26.5102 159.946 26.6687C160.331 26.8273 160.661 27.075 160.938 27.4119C161.224 27.7389 161.372 28.1749 161.381 28.7198C161.381 29.1954 161.248 29.6215 160.982 29.998C160.726 30.3746 160.351 30.6718 159.858 30.8898C159.374 31.0979 158.807 31.2019 158.156 31.2019Z" fill="#DEAE69"/>
        <path fill-rule="evenodd" clip-rule="evenodd" d="M106.405 29.8968C107.274 30.9606 108.468 31.4925 109.986 31.4925C111.515 31.4925 112.709 30.9606 113.566 29.8968C114.101 29.2269 114.469 28.4212 114.67 27.4799H112.237C112.134 27.819 111.998 28.1143 111.828 28.3656C111.411 28.9996 110.797 29.3166 109.986 29.3166C109.174 29.3166 108.56 29.005 108.143 28.3817C107.726 27.7478 107.518 26.829 107.518 25.6256C107.518 24.4221 107.726 23.5034 108.143 22.8694C108.56 22.2354 109.174 21.9184 109.986 21.9184C110.797 21.9184 111.411 22.2354 111.828 22.8694C112.082 23.2456 112.261 23.7221 112.365 24.2988H114.763C114.597 23.1303 114.198 22.1541 113.566 21.3704C112.709 20.2959 111.515 19.7586 109.986 19.7586C108.468 19.7586 107.274 20.2959 106.405 21.3704C105.548 22.4342 105.119 23.8526 105.119 25.6256C105.119 27.3985 105.548 28.8223 106.405 29.8968Z" fill="#DEAE69"/>
        <path d="M105.852 30.3428L105.854 30.346L105.857 30.3491C106.088 30.6328 106.34 30.8834 106.611 31.1014H97.8049V29.4651L101.777 25.5571C102.664 24.6675 103.107 23.9261 103.107 23.333C103.107 22.8988 102.963 22.5493 102.675 22.2845C102.398 22.0198 102.038 21.8874 101.594 21.8874C100.719 21.8874 100.071 22.3216 99.6498 23.1901L97.7218 22.1098C98.0875 21.3473 98.6138 20.7648 99.3008 20.3623C99.9878 19.9599 100.741 19.7586 101.561 19.7586C102.614 19.7586 103.517 20.0764 104.27 20.7118C104.692 21.0612 104.995 21.4801 105.181 21.9685C104.657 23.0084 104.409 24.2371 104.409 25.6256C104.409 25.6824 104.41 25.7389 104.411 25.7952C104.154 26.1317 103.846 26.4706 103.489 26.8121L101.212 28.9885H105.039C105.253 29.4786 105.523 29.9309 105.852 30.3428Z" fill="#DEAE69"/>
        <path d="M120.741 26.8022H117.944V29.6856H115.992V26.7901H113.184V24.9889H115.992V22.1055H117.944V24.9889H120.741V26.8022Z" fill="#DEAE69"/>
        <path d="M0 10.4406C0 6.78607 0 4.95879 0.707949 3.56293C1.33068 2.3351 2.32434 1.33684 3.54651 0.711226C4.93594 0 6.75481 0 10.3925 0H80.8036C84.4413 0 86.2601 0 87.6496 0.711226C88.8717 1.33684 89.8654 2.3351 90.4881 3.56293C91.1961 4.95879 91.1961 6.78608 91.1961 10.4406V20.6343C91.1961 24.2889 91.1961 26.1161 90.4881 27.512C89.8654 28.7398 88.8717 29.7381 87.6496 30.3637C86.2601 31.0749 84.4413 31.0749 80.8036 31.0749H10.3925C6.7548 31.0749 4.93594 31.0749 3.54651 30.3637C2.32434 29.7381 1.33068 28.7398 0.707949 27.512C0 26.1161 0 24.2889 0 20.6343V10.4406Z" fill="#1077E3"/>
        <path d="M20.8429 6.26491H24.7674V24.5182H20.8429V21.8897C19.3651 23.9584 17.2454 24.9928 14.4836 24.9928C11.9884 24.9928 9.85655 24.068 8.08808 22.2183C6.31961 20.3443 5.43538 18.0687 5.43538 15.3916C5.43538 12.6901 6.31961 10.4145 8.08808 8.56482C9.85655 6.71516 11.9884 5.79032 14.4836 5.79032C17.2454 5.79032 19.3651 6.81251 20.8429 8.85688V6.26491ZM10.9952 19.5898C12.0853 20.685 13.4541 21.2326 15.1014 21.2326C16.7487 21.2326 18.1175 20.685 19.2076 19.5898C20.2978 18.4703 20.8429 17.0709 20.8429 15.3916C20.8429 13.7123 20.2978 12.325 19.2076 11.2298C18.1175 10.1103 16.7487 9.5505 15.1014 9.5505C13.4541 9.5505 12.0853 10.1103 10.9952 11.2298C9.905 12.325 9.35992 13.7123 9.35992 15.3916C9.35992 17.0709 9.905 18.4703 10.9952 19.5898Z" fill="white"/>
        <path d="M32.0334 11.3028C32.0334 11.9113 32.3604 12.398 33.0145 12.7631C33.6928 13.1038 34.5044 13.408 35.4492 13.6758C36.4182 13.9191 37.3872 14.2112 38.3563 14.5519C39.3253 14.8926 40.1368 15.4767 40.7909 16.3042C41.4693 17.1074 41.8084 18.1296 41.8084 19.3708C41.8084 21.1231 41.1301 22.4982 39.7735 23.496C38.4411 24.4939 36.7574 24.9928 34.7224 24.9928C32.9297 24.9928 31.3914 24.6156 30.1074 23.8611C28.8235 23.1066 27.8908 22.0601 27.3094 20.7215L30.6889 18.7502C31.3187 20.5025 32.6632 21.3786 34.7224 21.3786C36.7816 21.3786 37.8112 20.6972 37.8112 19.3343C37.8112 18.7502 37.472 18.2756 36.7937 17.9105C36.1396 17.5455 35.3281 17.2412 34.359 16.9979C33.4142 16.7301 32.4573 16.4259 31.4883 16.0852C30.5193 15.7445 29.6956 15.1847 29.0173 14.4059C28.3632 13.6027 28.0362 12.5927 28.0362 11.3758C28.0362 9.69653 28.666 8.34578 29.9258 7.3236C31.2097 6.30141 32.7965 5.79032 34.6861 5.79032C36.1881 5.79032 37.5205 6.13105 38.6833 6.81251C39.8704 7.46962 40.7788 8.39446 41.4087 9.58701L38.1019 11.4488C37.472 10.0616 36.3334 9.36797 34.6861 9.36797C33.9351 9.36797 33.3052 9.53833 32.7965 9.87906C32.2877 10.1955 32.0334 10.67 32.0334 11.3028Z" fill="white"/>
        <path d="M58.4602 6.26491H62.3847V24.5182H58.4602V21.8897C56.9824 23.9584 54.8627 24.9928 52.101 24.9928C49.6057 24.9928 47.4739 24.068 45.7054 22.2183C43.9369 20.3443 43.0527 18.0687 43.0527 15.3916C43.0527 12.6901 43.9369 10.4145 45.7054 8.56482C47.4739 6.71516 49.6057 5.79032 52.101 5.79032C54.8627 5.79032 56.9824 6.81251 58.4602 8.85688V6.26491ZM48.6125 19.5898C49.7026 20.685 51.0714 21.2326 52.7187 21.2326C54.3661 21.2326 55.7348 20.685 56.825 19.5898C57.9151 18.4703 58.4602 17.0709 58.4602 15.3916C58.4602 13.7123 57.9151 12.325 56.825 11.2298C55.7348 10.1103 54.3661 9.5505 52.7187 9.5505C51.0714 9.5505 49.7026 10.1103 48.6125 11.2298C47.5223 12.325 46.9773 13.7123 46.9773 15.3916C46.9773 17.0709 47.5223 18.4703 48.6125 19.5898Z" fill="white"/>
        <path d="M76.5161 5.79032C79.0113 5.79032 81.1432 6.72732 82.9117 8.60133C84.6801 10.451 85.5644 12.7144 85.5644 15.3916C85.5644 18.0931 84.6801 20.3686 82.9117 22.2183C81.1432 24.068 79.0113 24.9928 76.5161 24.9928C73.7544 24.9928 71.6347 23.9706 70.1569 21.9263V31.0749H66.2323V6.26491H70.1569V8.89338C71.6347 6.82467 73.7544 5.79032 76.5161 5.79032ZM71.7921 19.5898C72.8823 20.685 74.251 21.2326 75.8984 21.2326C77.5457 21.2326 78.9145 20.685 80.0046 19.5898C81.0948 18.4703 81.6398 17.0709 81.6398 15.3916C81.6398 13.7123 81.0948 12.325 80.0046 11.2298C78.9145 10.1103 77.5457 9.5505 75.8984 9.5505C74.251 9.5505 72.8823 10.1103 71.7921 11.2298C70.702 12.325 70.1569 13.7123 70.1569 15.3916C70.1569 17.0709 70.702 18.4703 71.7921 19.5898Z" fill="white"/>
    </g>
    <defs>
        <clipPath id="clip0_373_192">
            <rect width="162" height="35" fill="white"/>
        </clipPath>
    </defs>
</svg>
