<svg version="1" id="Layer_1" xmlns="http://www.w3.org/2000/svg" viewBox="0 0 600 400">
<style>.st0{fill:#989ca0}</style>
<path id="Path_9749_1_" class="st0" d="M158.2 371.4v-23c.5-7.5-5.2-14-12.6-14.5h-1.7c-5.1-.3-10.1 2.1-12.8 6.5-2.5-4.2-7.2-6.7-12.1-6.5-4.3-.2-8.4 1.9-10.7 5.4v-4.5h-8v36.6h8v-20.1c-.7-4.7 2.6-9 7.3-9.6h.1c.5-.1 1.1-.1 1.6-.1 5.3 0 8 3.4 8 9.6v20.3h8v-20.3c-.6-4.7 2.7-9 7.4-9.7.5-.1 1-.1 1.5-.1 5.4 0 8 3.4 8 9.6v20.4h8zm118.9-36.6H264v-11.1h-8v11.1h-7.3v7.3h7.4v16.8c0 8.5 3.3 13.5 12.7 13.5 3.5 0 7-1 9.9-2.8l-2.3-6.8c-2.1 1.3-4.6 2-7 2.1-3.8 0-5.3-2.4-5.3-6.1v-16.6h13v-7.4zm67.9-.9c-4-.1-7.7 1.9-9.6 5.4v-4.4h-7.9v36.6h8V351c0-6 2.6-9.4 7.7-9.4 1.7 0 3.4.3 5 .9l2.4-7.7c-1.8-.7-3.7-1-5.7-1l.1.1zm-102.6 3.9c-4.5-2.7-9.7-4-14.9-3.8-9.3 0-15.3 4.4-15.3 11.7 0 6 4.4 9.6 12.6 10.8l3.8.5c4.4.6 6.4 1.8 6.4 3.8 0 2.8-2.9 4.4-8.3 4.4-4.4.1-8.7-1.2-12.2-3.8l-3.8 6.2c4.6 3.2 10.2 4.9 15.8 4.7 10.6 0 16.7-5 16.7-11.9 0-7-4.8-9.8-12.8-10.9l-3.8-.5c-3.5-.5-6.2-1.2-6.2-3.6s2.6-4.3 7-4.3c4 0 8 1.1 11.5 3.1l3.5-6.4zm213.1-3.9c-4-.1-7.7 1.9-9.6 5.4v-4.4H438v36.6h8V351c0-6 2.6-9.4 7.7-9.4 1.7 0 3.4.3 5 .9l2.4-7.7c-1.8-.7-3.7-1-5.7-1l.1.1zM353 353.1c-.4 10.2 7.6 18.8 17.8 19.1h1.7c4.8.2 9.5-1.3 13.2-4.4l-3.8-6.4c-2.8 2.1-6.1 3.2-9.6 3.3-6.5-.5-11.3-6.2-10.8-12.7.5-5.7 5-10.3 10.8-10.8 3.5 0 6.8 1.2 9.6 3.3l3.8-6.4c-3.7-3.1-8.4-4.6-13.2-4.4-10.2-.6-18.9 7.2-19.5 17.4v2zm74.5 0v-18.2h-8v4.4c-2.7-3.5-7-5.5-11.5-5.4-10.6 0-19.1 8.6-19.1 19.1 0 10.6 8.6 19.1 19.1 19.1 4.5.2 8.7-1.8 11.5-5.4v4.4h8v-18zm-29.6 0c.2-6.1 5.4-10.9 11.5-10.6 6.1.2 10.9 5.4 10.6 11.5-.2 6.1-5.4 10.9-11.5 10.6-5.8-.2-10.4-4.9-10.6-10.6-.1-.4 0-.7 0-.9zm-96-19.2c-10.6 0-19.1 8.5-19.2 19.1s8.5 19.1 19.1 19.2h.6c5.5.3 10.9-1.5 15.2-5l-3.8-5.9c-3 2.4-6.8 3.8-10.6 3.8-5.5.5-10.3-3.5-10.9-8.9h27.2v-3.1c1-9.6-6-18.1-15.6-19-.6-.1-1.2-.1-1.8-.1l-.2-.1zm0 7.1c5-.1 9.1 3.8 9.3 8.8H292c.3-5.1 4.6-9.1 9.7-8.9h.2zm199.3 12.1v-33h-7.7v19.1c-2.7-3.5-7-5.5-11.5-5.4-10.6 0-19.1 8.6-19.1 19.1 0 10.6 8.6 19.1 19.1 19.1 4.5.2 8.7-1.8 11.5-5.4v4.4h7.7v-17.9zm13.3 13c.5 0 1 .1 1.4.3.4.2.8.4 1.2.8.4.3.6.7.9 1.1.4.9.4 1.9 0 2.8-.2.4-.5.8-.9 1.1-.3.3-.7.6-1.2.8-.5.2-.9.3-1.4.3-1.5 0-2.8-.9-3.5-2.2-.4-.9-.4-1.9 0-2.8.2-.4.5-.8.9-1.1.3-.3.7-.6 1.2-.8.5-.2 1-.3 1.6-.3h-.2zm0 6.5c.4 0 .8-.1 1.1-.2 1.4-.6 2-2.3 1.4-3.7-.1-.3-.3-.5-.5-.8-.2-.2-.5-.5-.9-.6-1.1-.4-2.3-.2-3.1.6-1 1.1-1 2.7 0 3.8.3.3.6.5.9.6.4.2.8.2 1.2.2l-.1.1zm.2-4.6c.4 0 .7.1 1 .3.2.2.4.5.4.8 0 .3-.1.5-.3.7-.2.2-.5.3-.8.3l1.1 1.3h-.9l-1-1.3h-.3v1.3h-.8V368h1.6zm-.9.7v.9h1.4c.1-.1.1-.2 0-.3.1-.1.1-.2 0-.3-.2-.1-.3-.1-.5 0l-.9-.3zm-42-15.6c.2-6 5.3-10.7 11.3-10.5 6 .2 10.7 5.3 10.5 11.3-.2 6-5.3 10.7-11.3 10.5-5.7-.2-10.3-4.8-10.5-10.5-.1-.2 0-.5 0-.8zm-268.7 0v-18.3h-8v4.4c-2.7-3.5-7-5.5-11.5-5.4-10.6 0-19.1 8.6-19.1 19.1 0 10.6 8.6 19.1 19.1 19.1 4.5.2 8.7-1.8 11.5-5.4v4.4h8v-17.9zm-29.6 0c.8-5.6 6-9.5 11.6-8.6 5.6.8 9.5 6 8.6 11.6-.8 5.6-6 9.5-11.6 8.6-5.2-.8-9-5.4-8.7-10.7 0-.2 0-.6.1-.9z"/>
<g id="_Group__1_">
<path id="Rectangle_136_1_" fill="#787b7f" d="M239.7 56.2h120.5v216.6H239.7z"/>
<path id="_Path__1_" d="M247.4 164.5c0-42.3 19.4-82.2 52.6-108.3-59.8-47-146.4-36.6-193.4 23.2S70 225.8 129.8 272.8C179.7 312 250 312 300 272.7c-33.3-26.1-52.7-66-52.6-108.2z" fill="#787b7f"/>
<path id="Path_9750_1_" d="M522.8 164.5c0 76.1-61.7 137.7-137.8 137.7-30.8 0-60.8-10.4-85-29.4 59.8-47 70.2-133.6 23.1-193.4-6.8-8.6-14.5-16.4-23.1-23.1 59.8-47 146.4-36.6 193.4 23.2 19.1 24.1 29.4 54.1 29.4 85z" fill="#989ca0"/><path id="Path_9751_1_" class="st0" d="M509.6 249.8v-4.4h1.8v-.9h-4.6v.9h2v4.4h.8zm8.9 0v-5.4h-1.4l-1.6 3.8-1.6-3.8h-1.2v5.4h1v-4l1.5 3.5h1l1.5-3.5v4.1l.8-.1z"/>
</g>
</svg>