<?xml version="1.0" encoding="utf-8"?>
<!-- Generator: Adobe Illustrator 26.3.1, SVG Export Plug-In . SVG Version: 6.00 Build 0)  -->
<svg version="1.1" id="Layer_1" xmlns="http://www.w3.org/2000/svg" xmlns:xlink="http://www.w3.org/1999/xlink" x="0px" y="0px"
	 viewBox="0 0 130 20" style="enable-background:new 0 0 130 20;" xml:space="preserve">
<style type="text/css">
	.st0{fill-rule:evenodd;clip-rule:evenodd;fill:#FFFFFF;}
</style>
<g>
	<g>
		<polygon class="st0" points="12.3,7.3 10.6,8.6 10.7,8.5 12,10 14.1,11.4 13.5,9.2 		"/>
		<path class="st0" d="M14.1,11.4L14.1,11.4L14.1,11.4L14.1,11.4z"/>
		<polygon class="st0" points="8.5,10.4 6.8,11.8 9.3,13 11.8,13.4 10.3,11.8 		"/>
		<path class="st0" d="M15.4,10.7L15.4,10.7V8.2L14.9,5l-2.3,1.9l1.3,2L15.4,10.7L15.4,10.7L15.4,10.7z"/>
		<path class="st0" d="M16.9,10.2L16.9,10.2L16.9,10.2z"/>
		<polygon class="st0" points="17.6,2.6 15.1,4.8 15.2,4.7 15.8,8.2 16.9,10.2 17.5,7.9 		"/>
		<polygon class="st0" points="10.3,17.4 8,16.8 1.5,16.3 1.8,15.9 8.1,16.3 10.5,16.1 8.5,14.9 4.4,13.8 4.8,13.4 8.6,14.5 
			11,14.6 9.1,13.3 6.3,12.1 6.4,12.1 0.1,17.5 17.3,17.5 18.6,10.5 		"/>
		<path class="st0" d="M11.1,14.6L11.1,14.6L11.1,14.6C11,14.8,11,14.6,11.1,14.6z"/>
		<path class="st0" d="M11.8,13.4L11.8,13.4L11.8,13.4L11.8,13.4z"/>
		<polygon class="st0" points="20.4,0.4 18.1,2.3 18,7.9 18.6,10.1 		"/>
		<polygon class="st0" points="11.7,10.4 10.5,8.7 8.8,10.1 10.5,11.4 12.9,12.4 		"/>
	</g>
	<path class="st0" d="M9.8,17.5H27l3.1-17.1L9.8,17.5z"/>
	<path class="st0" d="M35.5,17.5h-1.7l1.7-8.1h3.3c0.6,0,1.1,0.1,1.4,0.2s0.6,0.4,0.8,0.7c0.2,0.4,0.2,0.7,0.2,1.2
		c0,0.4-0.1,0.8-0.2,1.2c-0.1,0.4-0.4,0.7-0.6,1c-0.2,0.2-0.5,0.4-0.7,0.5c-0.2,0.1-0.6,0.2-1.1,0.2c-0.2,0-0.7,0-1.4,0h-1.1
		L35.5,17.5z M36.4,13h0.5c0.8,0,1.4,0,1.8-0.1c0.2-0.1,0.5-0.2,0.7-0.5c0.1-0.2,0.2-0.5,0.2-0.8c0-0.2,0-0.4-0.1-0.5
		c-0.1-0.1-0.2-0.2-0.4-0.2s-0.5-0.1-1.1-0.1h-1.2L36.4,13z M42.8,17.5h-1.5l1.7-8.1h1.5l-0.6,2.9c0.4-0.2,0.7-0.5,1.1-0.6
		c0.4-0.1,0.6-0.2,1-0.2c0.5,0,0.8,0.1,1.2,0.4c0.2,0.2,0.5,0.6,0.5,1.1c0,0.2-0.1,0.6-0.1,1.1l-0.7,3.4h-1.5l0.7-3.4
		c0.1-0.4,0.1-0.6,0.1-0.7c0-0.2-0.1-0.4-0.2-0.5c-0.1-0.1-0.2-0.2-0.5-0.2c-0.2,0-0.5,0.1-0.8,0.2c-0.4,0.2-0.6,0.6-0.7,1
		c-0.1,0.2-0.2,0.7-0.4,1.4L42.8,17.5z M49.2,11.5h1.5l-1.2,5.8h-1.5L49.2,11.5z M49.7,9.4h1.5l-0.4,1.4h-1.5L49.7,9.4z M51,17.5
		l1.7-8.1h1.5l-1.7,8.1H51z M55.3,11.5h1.5l-1.2,5.8h-1.5L55.3,11.5z M55.8,9.4h1.5L57,10.8h-1.5L55.8,9.4z M58.4,11.5h1.5l-0.1,0.6
		c0.4-0.2,0.6-0.5,1-0.6c0.2-0.1,0.6-0.1,1-0.1c0.6,0,1.1,0.2,1.4,0.6c0.4,0.5,0.6,1.1,0.6,1.9c0,1.1-0.4,1.9-1,2.7
		c-0.6,0.6-1.2,1-1.9,1c-0.8,0-1.3-0.4-1.8-1l-0.6,3H57L58.4,11.5z M59.4,15c0,0.5,0.1,0.8,0.4,1.1c0.2,0.2,0.5,0.4,0.8,0.4
		c0.2,0,0.5-0.1,0.7-0.2c0.2-0.2,0.5-0.5,0.6-1c0.1-0.5,0.2-0.8,0.2-1.2c0-0.5-0.1-0.8-0.4-1.1c-0.2-0.2-0.5-0.4-0.8-0.4
		c-0.4,0-0.6,0.1-0.8,0.4c-0.2,0.2-0.5,0.5-0.6,1C59.4,14.3,59.4,14.6,59.4,15L59.4,15z M65.2,11.5h1.5l-0.1,0.6
		c0.4-0.2,0.6-0.5,1-0.6c0.2-0.1,0.6-0.1,1-0.1c0.6,0,1.1,0.2,1.4,0.6c0.4,0.5,0.6,1.1,0.6,1.9c0,1.1-0.4,1.9-1,2.7
		c-0.6,0.6-1.2,1-1.9,1c-0.8,0-1.3-0.4-1.8-1l-0.6,3h-1.5L65.2,11.5z M66.1,15c0,0.5,0.1,0.8,0.4,1.1c0.2,0.2,0.5,0.4,0.8,0.4
		c0.2,0,0.5-0.1,0.7-0.2c0.2-0.2,0.5-0.5,0.6-1s0.2-0.8,0.2-1.2c0-0.5-0.1-0.8-0.4-1.1c-0.2-0.2-0.5-0.4-0.8-0.4
		c-0.4,0-0.6,0.1-0.8,0.4c-0.2,0.2-0.5,0.5-0.6,1C66.2,14.3,66.1,14.6,66.1,15L66.1,15z M72.1,11.5h1.5l-1.2,5.8h-1.5L72.1,11.5z
		 M72.5,9.4h1.5l-0.4,1.4h-1.5L72.5,9.4z M75.2,11.5h1.5l-0.2,0.8c0.4-0.4,0.7-0.6,1.1-0.7c0.4-0.1,0.7-0.2,1.1-0.2
		c0.5,0,0.8,0.1,1.2,0.5c0.2,0.2,0.5,0.6,0.5,1.1c0,0.2-0.1,0.6-0.2,1.2l-0.7,3.3h-1.5l0.7-3.3c0.1-0.5,0.1-0.8,0.1-0.8
		c0-0.2-0.1-0.4-0.2-0.5s-0.2-0.2-0.5-0.2c-0.2,0-0.5,0.1-0.8,0.2c-0.2,0.2-0.5,0.5-0.7,0.8c-0.1,0.2-0.2,0.7-0.4,1.4l-0.5,2.4H74
		L75.2,11.5z M86.5,15h-3.9c0,0.1,0,0.1,0,0.1c0,0.4,0.1,0.7,0.4,1c0.2,0.2,0.5,0.4,0.8,0.4c0.5,0,1-0.2,1.2-0.8l1.4,0.2
		c-0.2,0.6-0.6,1-1.1,1.3c-0.5,0.2-1,0.5-1.5,0.5c-0.8,0-1.4-0.2-1.9-0.7c-0.5-0.5-0.7-1.2-0.7-2s0.2-1.5,0.7-2.1
		c0.6-0.8,1.4-1.3,2.6-1.3c0.7,0,1.3,0.2,1.7,0.7c0.4,0.5,0.6,1.1,0.6,1.9C86.6,14.4,86.5,14.8,86.5,15L86.5,15z M85.2,14
		c0-0.1,0-0.1,0-0.1c0-0.5-0.1-0.7-0.2-1c-0.2-0.2-0.5-0.4-0.8-0.4s-0.6,0.1-0.8,0.4c-0.2,0.2-0.5,0.6-0.5,1.1H85.2z M94.9,15.7
		h-3.2l-1,1.8h-1.7l4.5-8.1h1.9l1.3,8.1h-1.5L94.9,15.7z M94.7,14.3l-0.5-3.2l-1.8,3.2H94.7z M98.9,11.5h1.5l-1.2,5.8h-1.5
		L98.9,11.5z M99.4,9.4h1.5l-0.4,1.4h-1.5L99.4,9.4z M101.9,11.5h1.4l-0.2,1.1c0.6-0.8,1.2-1.3,1.8-1.3c0.2,0,0.5,0,0.7,0.1
		l-0.6,1.3c-0.1,0-0.4-0.1-0.5-0.1c-0.2,0-0.6,0.1-0.8,0.4c-0.2,0.2-0.5,0.5-0.7,0.8c-0.1,0.4-0.4,1-0.5,1.7l-0.4,1.8h-1.5
		L101.9,11.5z M105.1,17.5l1.7-8.1h1.5l-1.7,8.1H105.1z M109.4,11.5h1.5l-1.2,5.8h-1.5L109.4,11.5z M109.9,9.4h1.5l-0.4,1.4h-1.5
		L109.9,9.4z M112.5,11.5h1.5l-0.1,0.7c0.4-0.4,0.7-0.6,1.1-0.7c0.4-0.1,0.7-0.2,1.1-0.2c0.5,0,0.8,0.1,1.2,0.5
		c0.2,0.2,0.5,0.6,0.5,1.1c0,0.2-0.1,0.6-0.2,1.2l-0.7,3.3h-1.5l0.7-3.3c0.1-0.5,0.1-0.8,0.1-0.8c0-0.2-0.1-0.4-0.2-0.5
		s-0.2-0.2-0.5-0.2s-0.5,0.1-0.8,0.2c-0.2,0.2-0.5,0.5-0.7,0.8c-0.1,0.2-0.2,0.7-0.4,1.4l-0.5,2.4h-1.5L112.5,11.5z M123.7,15h-3.9
		c0,0.1,0,0.1,0,0.1c0,0.4,0.1,0.7,0.4,1c0.2,0.2,0.5,0.4,0.8,0.4c0.5,0,1-0.2,1.2-0.8l1.4,0.2c-0.2,0.6-0.6,1-1.1,1.3
		c-0.5,0.2-1,0.5-1.5,0.5c-0.8,0-1.4-0.2-1.9-0.7c-0.5-0.5-0.7-1.2-0.7-2s0.2-1.5,0.7-2.1c0.6-0.8,1.4-1.3,2.6-1.3
		c0.7,0,1.3,0.2,1.7,0.7c0.5,0.5,0.6,1.1,0.6,1.9C123.8,14.4,123.8,14.8,123.7,15L123.7,15z M122.4,14c0-0.1,0-0.1,0-0.1
		c0-0.5-0.1-0.7-0.2-1c-0.2-0.2-0.5-0.4-0.8-0.4c-0.4,0-0.6,0.1-0.8,0.4c-0.2,0.2-0.5,0.6-0.5,1.1H122.4z M124,15.8l1.5-0.2
		c0.1,0.4,0.4,0.6,0.5,0.7c0.2,0.1,0.5,0.2,0.8,0.2c0.4,0,0.6-0.1,0.8-0.2c0.1-0.1,0.2-0.2,0.2-0.4c0-0.1,0-0.2-0.1-0.2
		c-0.1-0.1-0.4-0.2-0.7-0.4c-1-0.4-1.5-0.6-1.8-0.7c-0.4-0.2-0.5-0.7-0.5-1.1c0-0.5,0.1-0.8,0.5-1.2c0.5-0.5,1.2-0.7,2.1-0.7
		c0.7,0,1.3,0.1,1.7,0.4c0.4,0.2,0.6,0.6,0.7,1.1l-1.4,0.2c-0.1-0.2-0.2-0.4-0.4-0.5c-0.2-0.1-0.5-0.2-0.8-0.2c-0.4,0-0.6,0-0.7,0.1
		s-0.2,0.2-0.2,0.4c0,0.1,0.1,0.2,0.2,0.4c0.1,0,0.4,0.1,0.8,0.4c0.7,0.2,1.3,0.5,1.5,0.7c0.4,0.4,0.6,0.7,0.6,1.1
		c0,0.6-0.2,1.1-0.7,1.4c-0.5,0.4-1.1,0.6-2,0.6c-0.8,0-1.5-0.1-1.9-0.5C124.5,16.8,124.3,16.4,124,15.8L124,15.8z"/>
</g>
</svg>
