<?xml version="1.0" encoding="utf-8"?>
<!-- Generator: Adobe Illustrator 27.3.1, SVG Export Plug-In . SVG Version: 6.00 Build 0)  -->
<svg version="1.1" id="Layer_1" xmlns="http://www.w3.org/2000/svg" xmlns:xlink="http://www.w3.org/1999/xlink" x="0px" y="0px"
	 viewBox="0 0 153 45" style="enable-background:new 0 0 153 45;" xml:space="preserve">
<style type="text/css">
	.st0{fill:#FFFFFF;}
</style>
<path class="st0" d="M118.7,38.9c-0.7,0-1,0.2-1,0.5l2.6,0.3l10.2-0.3L119.9,39C119.5,39,119.1,38.9,118.7,38.9z M133.8,19.4
	L133.8,19.4l7.4-0.2l-7.8-0.2C133.5,19.2,133.6,19.3,133.8,19.4z M123.5,19.7L123.5,19.7l0.2,0c0-0.1-0.1-0.3-0.1-0.4L123.5,19.7z
	 M152.9,4.5l-1.6-0.1l-8.3,2.8c-5.3,2-10.3,4.4-15.2,7.1c10.7-6.9,17.9-11.1,21.6-12.7l1.5-1.1c0.3-0.5-0.2-0.6-1.5-0.1
	C146,1.5,140.5,4.4,133,9c-3.2,2.1-6.3,4.4-9.3,6.9l-5.9,5.4c-1.8,2.2-3.4,4.5-4.8,7l0.4,0.6l2-0.6l-1.3,1.2l2,2
	c3.3-1.3,5.5-4.7,6.4-9.9l-1.5,0.1l2.2-1.9l0.5-1.5c0.5,1.2,0.8,2.4,0.9,3.7l1.3-1.3c0.3,1.3,0.4,2.6,0.4,4c-0.3,1-2,2.7-5.1,5
	l3.6-0.8l2.6,3.6c1.8,2.3,3.8,4.5,5.9,6.6l3.7-2.6l-3.4-0.7l4.4-0.6l1.7-2.3l-7.1-0.8l8-0.6l0.5-2.3l-8.9-1.3h9.6
	c0.2,0,0.2-0.7,0.1-2.2l-9.6-0.6l9.9-1l-0.1-1.8l-2.4-0.1c-3.1,0-5.9-1.6-7.5-4.2l1.3,0c1.5-0.1,2.8-0.9,3.7-2l-7-0.2
	c1-1.2,4.5-3.2,10.6-5.9c3.5-1.7,7.2-3.2,10.9-4.6C152.8,5,153.3,4.7,152.9,4.5z M131,15.4L131,15.4l6.1,0.2c0.1,0,0.1,0,0.2,0.1
	l2.7-0.1L131,15.4L131,15.4z M137,12L137,12L137,12l1,0L137,12z M130.1,5.7c-3.2-0.1-6-0.2-8-0.2c-1.4,0-2.4,0-2.9,0.1L117.5,6
	c-0.1,0-0.1,0.1-0.1,0.1c0,0.1,0.4,0.2,1.1,0.3L130.1,5.7z M106.4,19.9c0.2,0.2,0.4,0.3,0.6,0.3l11.8-0.3l1.3-1.2l-10.5-0.3
	c-2.1,0-3.1,0.3-3.3,1.1C106.3,19.6,106.4,19.7,106.4,19.9L106.4,19.9z M114.3,9.4c0.5,0,1,0,1.7-0.1L132.3,9l0.2-0.1l-15.9-0.6
	c-0.6,0-1.2-0.1-1.6-0.1c-1.4,0-2.2,0.2-2.3,0.5c-0.1,0.1-0.1,0.2,0,0.3C112.7,9.3,113.3,9.4,114.3,9.4z M127.5,12.3
	c0.2-0.2,0.5-0.3,0.7-0.5l-16.1-0.2c-2,0-3,0.2-3,0.6l0.1,0.7L127.5,12.3z M110.2,16.8c0.3,0,0.6,0,1,0l11.5-0.5l0.8-0.7l0,0
	l0.4-0.3L108.8,15c-0.8,0.1-1.3,0.3-1.3,0.7c0,0.2,0,0.4,0.2,0.6C107.9,16.7,108.8,16.8,110.2,16.8z M115.6,23.5
	c0.5-0.7,0.9-1.2,1.3-1.7h-8.7c-1.1,0-1.8,0.2-2.1,0.5c-0.1,0.2-0.2,0.4-0.1,0.6l0,0c0,0.4,0.3,0.7,0.7,0.7L115.6,23.5z M130,36.1
	L113.5,36c-0.4,0-0.6,0.2-0.6,0.5c0,0.4,0.4,0.8,2.6,0.8c0.4,0,0.8,0,1.3,0l13.8-0.5C130.3,36.5,130.1,36.3,130,36.1z M121.8,28.6
	l-1.6,0c-0.4,0.6-0.8,1.1-1.3,1.5l0,0l6.1-0.2l-0.5-0.7l-3.4,0.7c0,0,0,0-0.1,0c-0.1,0-0.2-0.1-0.3-0.1c-0.1-0.2-0.1-0.4,0.1-0.5
	C121.2,29.1,121.5,28.8,121.8,28.6z M127.9,33.8c-0.3-0.4-0.6-0.8-0.9-1.2l0,0l-14.4-0.1c-1.7,0-2.6,0.2-2.9,0.5
	c-0.1,0.1-0.1,0.2-0.1,0.4c0.2,0.6,0.9,0.8,2.2,0.8c0.4,0,0.9,0,1.4-0.1L127.9,33.8z M114.5,30.3l-0.6-0.6c0,0,0,0,0,0
	c-0.1-0.1-0.1-0.4,0-0.5l0.2-0.2l-0.5,0.2c0,0-0.1,0-0.1,0c-0.1,0-0.2-0.1-0.3-0.2l-0.2-0.4l-3.3,0l-1.8,0.2
	c-0.2,0.2-0.3,0.5-0.2,0.8c0.1,0.6,0.7,0.9,1.7,0.9c0.3,0,0.6,0,0.9-0.1L114.5,30.3z M113.4,26.9c0.4-0.6,0.7-1.2,1.1-1.7l-5.6,0.1
	c-0.6,0-1.2,0.1-1.7,0.2c-0.4,0.2-0.6,0.4-0.6,0.7c0,0.5,0.2,0.8,0.6,0.8l2,0.2L113.4,26.9z M94.1,36.1c-0.3,0-0.5,0.3-0.5,0.6
	c0,0.3,0.2,0.5,0.6,0.5c0.5,0,0.7-0.2,0.7-0.5c0-0.4-0.2-0.6-0.7-0.6C94.2,36.1,94.1,36.1,94.1,36.1z M75.5,43.6
	c-0.4,0-0.6,0.2-0.6,0.6c0,0.3,0.2,0.5,0.6,0.5c0.5,0,0.7-0.2,0.7-0.5C76.2,43.8,75.9,43.6,75.5,43.6z M73.8,43.6
	c-0.4,0-0.6,0.2-0.6,0.6c0,0.3,0.2,0.5,0.6,0.5c0.5,0,0.7-0.2,0.7-0.5C74.5,43.8,74.3,43.6,73.8,43.6z M71.2,36.2
	c-0.3,0-0.5,0.3-0.5,0.6c0,0.3,0.2,0.5,0.6,0.5c0.5,0,0.8-0.2,0.8-0.5c0-0.4-0.2-0.6-0.8-0.6C71.3,36.2,71.3,36.2,71.2,36.2z
	 M100.4,37.6c0,0.1,0.1,0.1,0.2,0.1v5.5h1.3v-6.8l-1.4,0.9L100.4,37.6z M95.8,36.1c-0.3,0-0.5,0.3-0.5,0.6c0,0.3,0.2,0.5,0.6,0.5
	c0.5,0,0.7-0.2,0.7-0.5c0-0.4-0.2-0.6-0.7-0.6C95.8,36.1,95.8,36.1,95.8,36.1z M98.2,37.6l0.2,0.1V42h-1.7v-4L96,38.4
	c-1.4,0.6-2.1,1.1-2.1,1.7v1.1h1.7V42h-4.1l0-0.9c0-0.6-0.2-1.2-0.7-1.5c-0.4-0.3-0.9-0.5-1.4-0.5h-4.7c-0.5,0-1,0.2-1.4,0.5v-3.4
	L82,37.1c-0.4,0.3-0.4,0.5,0,0.7V42h-1.5l0-3.6l-1.3,1c-0.2,0.1-0.2,0.2-0.1,0.3l0.3,0.1l-0.1,3.4c0,0.3-0.2,0.7-0.5,0.8
	c-0.3,0.3-0.8,0.4-1.2,0.2c-0.2,0-0.3,0.1-0.1,0.3c0.3,0.3,0.7,0.5,1.1,0.5l1.1-0.3c0.5-0.3,0.8-0.9,0.8-1.5h19.3v-6.8
	c-0.8,0.5-1.2,0.8-1.4,1C98.2,37.4,98.1,37.5,98.2,37.6z M90.2,42h-7v-1.2c0.2-0.3,0.6-0.6,0.9-0.5h5.1c0.5,0,0.8,0.1,0.9,0.3
	l0.1,0.6L90.2,42z M95.6,40.3h-0.8c0-0.3,0.3-0.5,0.8-0.7V40.3z M77.5,39.1L76.3,40c-0.4,0.3-0.3,0.5,0.1,0.6V42h-3.7v-5.1l-1.5,1.4
	c-0.1,0.1,0,0.2,0.3,0.3l-0.1,0.5c-0.4,0.2-0.8,0.4-1.2,0.7c-0.8,0.5-1.1,1-1.1,1.4l-0.2,1.9h8.7V39.1z M71.4,42h-1.3l0,0
	c-0.1-0.4,0-0.8,0.3-1.1l1-0.5V42z M69.6,36.2c-0.3,0-0.5,0.3-0.5,0.6c0,0.3,0.2,0.5,0.6,0.5c0.5,0,0.7-0.2,0.7-0.5
	c0-0.4-0.2-0.6-0.7-0.6h0C69.7,36.2,69.6,36.2,69.6,36.2z M27.3,35.7l-2.7,6.9h1l0.8-2.1h2.9l0.8,2.1h1l-2.7-6.9H27.3z M26.6,39.8
	l1.2-3.2h0l1.2,3.2H26.6z M64.3,38.7c-1.1-0.3-2.2-0.4-2.2-1.2c0-0.9,0.8-1.2,1.6-1.2c0,0,0.1,0,0.1,0c0.8,0,1.6,0.6,1.6,1.4h0.9
	c-0.1-1.5-1.1-2.2-2.6-2.2c-1.3,0-2.5,0.6-2.5,2c0,1.3,1.1,1.6,2.2,1.8s2.2,0.4,2.2,1.4c0,1-0.9,1.3-1.8,1.3c-1,0-2-0.5-2-1.7h-0.9
	c0,1.7,1.3,2.4,2.9,2.5c1.3,0,2.7-0.6,2.7-2.1C66.5,39.4,65.4,39,64.3,38.7z M51.3,35.7l-2.7,6.9h1l0.8-2.1h2.9l0.8,2.1h1l-2.7-6.9
	H51.3z M50.6,39.8l1.2-3.2h0l1.2,3.2H50.6z M57.5,39l-2.1-3.3h-1.1l2.7,4.1v2.8h0.9v-2.8l2.7-4.1h-1L57.5,39z M66.3,24.9h7.6
	l2.7,6.6h4.7l-9.5-21.2h-1.8l-9.3,21.2h2.8L66.3,24.9z M70.1,15.5l3,7.4h-6L70.1,15.5z M47.9,35.7l-1.4,5.8h0l-1.5-5.8h-1l-1.6,5.8
	h0L41,35.7H40l1.8,6.9h1l1.6-5.8h0l1.6,5.8h1l1.9-6.9H47.9z M41.6,31.5h4.7l-9.5-21.2h-1.8l-9.3,21.2h2.8l2.7-6.6h7.6L41.6,31.5z
	 M32.1,23l3-7.4l3,7.4H32.1z M51.4,31.5H56V12.8h5.7v-2.6H45.7v2.6h5.8V31.5z M23.9,21.2c-0.1-6.5-5.5-11.6-12-11.4
	c-6.5-0.1-11.8,5-12,11.4c0.1,6.5,5.5,11.6,12,11.4c0.6,0,1.2-0.1,1.8-0.1l6.4,5.7l3.4-2.7l-6.7-3.8C21,29.9,23.9,25.8,23.9,21.2z
	 M12,30.6c-4.4,0-7.9-4.2-7.9-9.4c0-5.2,3.6-9.4,7.9-9.4s7.9,4.2,7.9,9.4S16.3,30.6,12,30.6z M31.7,42.6h0.9v-6.9h-0.9V42.6z
	 M39.4,40.7c-0.1-0.7-0.2-1.3-1-1.4v0c0.8-0.2,1.3-1,1.2-1.8c0-1.1-0.8-1.8-2.1-1.8h-3.3v6.9h0.9v-3h2.3c0.9,0,1.1,0.6,1.2,1.3
	c0.1,0.7,0,1.4,0.3,1.7h1C39.5,42,39.4,41.4,39.4,40.7z M37,38.9h-1.9l0-2.4h2.3c0.1,0,0.2,0,0.2,0c0.6,0.1,1.1,0.6,1,1.2
	C38.6,38.7,37.9,38.9,37,38.9z M88.6,22.1h1.3l6.1,9.2h5.2l-7.4-9.7c3.2-0.7,5.4-3.5,5.4-6.7c0-4.2-4.9-4.6-4.9-4.6h-9.4v21.2h3.7
	V22.1z M88.6,11.4h4.8c0,0,2.6,1.4,2.6,4.1c0,2.7-1.1,4.8-2.8,4.8h-4.6V11.4z"/>
</svg>
