<svg width="172" height="31" viewBox="0 0 172 31" fill="none" xmlns="http://www.w3.org/2000/svg">
<path d="M171.5 0V30H165.3C166.634 26.3482 166.877 22.3875 166 18.6C164.801 13.6214 161.704 9.30841 157.37 6.58089C153.036 3.85337 147.807 2.92723 142.8 4L141.6 4.3V0H171.5ZM149.8 4.7C148.059 3.86343 146.093 3.61766 144.2 4L144.9 4.1H145C145.868 4.03137 146.74 4.06494 147.6 4.2C147.251 4.28964 146.915 4.42409 146.6 4.6L147.2 4.9C147.5 4.8 148.3 4.6 148.6 4.5C149.153 4.72577 149.688 4.99321 150.2 5.3C149.6 5.4 148.8 5.5 148.1 5.6C148.285 5.71832 148.425 5.894 148.5 6.1C149.1 6 150.1 5.9 150.9 5.8C151.262 6.17484 151.597 6.57593 151.9 7C150.967 6.94986 150.033 6.94986 149.1 7C149.225 7.21244 149.294 7.45342 149.3 7.7C150.301 7.67991 151.302 7.71329 152.3 7.8C152.48 8.28646 152.614 8.78864 152.7 9.3C151.648 9.06846 150.577 8.93456 149.5 8.9V9.8C150.584 9.89383 151.656 10.0948 152.7 10.4C152.683 10.9714 152.616 11.5402 152.5 12.1C151.425 11.7155 150.322 11.4147 149.2 11.2C149.094 11.6544 148.926 12.092 148.7 12.5C149.809 12.8633 150.881 13.3321 151.9 13.9L151.3 15.4C150.286 14.7678 149.214 14.2322 148.1 13.8C147.792 14.4027 147.424 14.9724 147 15.5C148 16.1 149 16.8 150 17.5C149.692 17.9201 149.358 18.3209 149 18.7C148.1 17.9 146.2 16.4 146.2 16.4C145.711 17.0392 145.139 17.6109 144.5 18.1C145.355 18.9494 146.157 19.8512 146.9 20.8C146.6 21.1 146.2 21.4 145.9 21.7C145.1 20.7 144.2 19.5 143.6 18.8C142.981 19.3025 142.311 19.7383 141.6 20.1V21.2L142.8 23.7C142.53 23.8924 142.224 24.0284 141.9 24.1L141.5 23.4V24.7C146.3 22.6 151.2 17.9 152.6 12.8C153.186 10.9329 153.116 8.92141 152.4 7.1C151.762 6.08313 150.865 5.25469 149.8 4.7ZM149.1 4C149.282 4.11089 149.488 4.17925 149.7 4.2H149.8C150.812 4.38187 151.791 4.71919 152.7 5.2H151.3L151.9 5.8H153.8C154.455 6.23898 155.001 6.8201 155.4 7.5C154.544 7.3028 153.675 7.16911 152.8 7.1C152.9 7.4 153 7.6 153.1 7.9C154.084 8.0036 155.056 8.20458 156 8.5C156.304 9.13083 156.507 9.80585 156.6 10.5C155.566 10.095 154.494 9.79355 153.4 9.6V10.7C154.53 11.011 155.634 11.4123 156.7 11.9C156.683 12.6038 156.616 13.3056 156.5 14C155.446 13.4316 154.341 12.9629 153.2 12.6C153.08 13.212 152.913 13.8138 152.7 14.4C153.799 14.9402 154.868 15.5411 155.9 16.2C155.7 16.7 155.4 17.3 155.1 17.9C154.127 17.173 153.089 16.537 152 16C151.604 16.7548 151.17 17.489 150.7 18.2C151.6 18.9 152.6 19.7 153.5 20.5C153.165 20.9905 152.797 21.4582 152.4 21.9C151.7 21.2 150.6 20.2 149.7 19.4C149.046 20.2386 148.309 21.0091 147.5 21.7C148.1 22.3 149.8 24.4 149.8 24.4C149.421 24.7576 149.02 25.0916 148.6 25.4C148.6 25.4 146.8 23.1 146.4 22.6C145.406 23.3569 144.371 24.058 143.3 24.7C143.8 25.5 145 27.8 145 27.8C144.699 28.0254 144.361 28.1947 144 28.3C143.37 27.3197 142.834 26.2817 142.4 25.2C142.173 25.3149 141.94 25.4151 141.7 25.5V29.6C145.526 28.3577 148.969 26.1541 151.7 23.2C154.3 20.3 156.4 17.3 157 13.6C157.261 12.1985 157.139 10.7523 156.646 9.41455C156.153 8.07676 155.308 6.897 154.2 6C152.772 4.78088 150.976 4.07657 149.1 4ZM147.8 5.9C146.2 4.3 143.7 4.1 141.5 4.6V4.8C142.026 4.68425 142.562 4.6173 143.1 4.6C142.751 4.80949 142.416 5.04341 142.1 5.3C142.2 5.3 142.4 5.4 142.5 5.4C142.934 5.05243 143.403 4.75082 143.9 4.5C144.448 4.49328 144.992 4.59525 145.5 4.8C144.8 5.1 143.9 5.5 143.3 5.8C143.4 5.9 143.5 5.9 143.6 6C144.406 5.57348 145.241 5.20585 146.1 4.9C146.485 5.04901 146.828 5.28921 147.1 5.6C146.045 5.82062 145.009 6.1215 144 6.5C144.1 6.6 144.2 6.8 144.3 6.9C145.371 6.50268 146.475 6.20149 147.6 6C147.856 6.25874 148.06 6.5643 148.2 6.9C146.984 6.98591 145.778 7.1868 144.6 7.5C144.681 7.65354 144.716 7.82718 144.7 8C145.921 7.76804 147.158 7.63427 148.4 7.6C148.506 7.95834 148.573 8.32717 148.6 8.7C147.333 8.63057 146.062 8.66401 144.8 8.8V9.4C146 9.4 147.3 9.4 148.6 9.5C148.596 9.95005 148.494 10.3938 148.3 10.8C147.048 10.5353 145.778 10.3681 144.5 10.3C144.462 10.5859 144.359 10.8594 144.2 11.1C145.424 11.34 146.628 11.6743 147.8 12.1C147.621 12.4779 147.421 12.8451 147.2 13.2C146.063 12.6905 144.894 12.2562 143.7 11.9C143.445 12.287 143.211 12.6876 143 13.1C143.7 13.5 145.2 14.3 146.1 14.9C145.862 15.2242 145.594 15.5255 145.3 15.8C144.4 15.1 143.4 14.4 142.4 13.7C142.085 14.115 141.715 14.485 141.3 14.8V14.9L143.6 17.4C143.3 17.6 143.1 17.9 142.8 18.1L141.3 16.1V19.6C143.824 18.1256 145.926 16.0244 147.4 13.5C148.5 11.6 149.3 8.9 148.3 6.7C148.4 6.6 148.2 6.2 147.8 5.9ZM154.8 5.9L155.5 6C156.198 6.41176 156.837 6.91636 157.4 7.5C157.6 7.7 157.8 8 158 8.2C157.448 7.98758 156.879 7.82037 156.3 7.7C156.487 8.023 156.654 8.35693 156.8 8.7C157.5 8.9 158.1 9.1 158.7 9.3C159.103 10.0924 159.406 10.9323 159.6 11.8C158.886 11.4255 158.152 11.0916 157.4 10.8C157.483 11.2281 157.517 11.6643 157.5 12.1C158.302 12.4679 159.071 12.9028 159.8 13.4C159.829 14.2051 159.762 15.0108 159.6 15.8C158.838 15.2422 158.035 14.7409 157.2 14.3C157.044 15.0557 156.809 15.793 156.5 16.5C157.3 17.1 158.1 17.6 158.9 18.3C158.683 18.9694 158.38 19.608 158 20.2C157.2 19.5 156.4 18.9 155.6 18.3C155.104 19.2111 154.536 20.0806 153.9 20.9C154.7 21.6 155.4 22.3 156.2 23.1C155.797 23.6574 155.363 24.1916 154.9 24.7C154.2 23.9 153.5 23.2 152.7 22.4C151.884 23.3159 151.016 24.1841 150.1 25C150.822 25.7874 151.49 26.6227 152.1 27.5C151.6 27.9 151.2 28.3 150.8 28.6L148.9 26.1C147.729 26.9921 146.492 27.7944 145.2 28.5L146.2 30.2H149.3C154.1 26.9 158.4 22.1 159.7 16.7C160.104 15.1029 160.115 13.4316 159.732 11.8293C159.349 10.227 158.583 8.74146 157.5 7.5C156.565 6.49113 155.344 5.79309 154 5.5C154.3 5.4 154.6 5.7 154.8 5.9ZM141.5 5.7V6.3L141.8 6.1C142.073 6.18335 142.34 6.28355 142.6 6.4C142.199 6.5736 141.827 6.80988 141.5 7.1V7.5C142 7.2 142.5 6.9 142.9 6.7C143.1 6.8 143.2 7 143.3 7.1C142.649 7.36087 142.014 7.66143 141.4 8V8.4C142.107 8.04014 142.843 7.73912 143.6 7.5C143.711 7.68244 143.779 7.88752 143.8 8.1C142.968 8.26051 142.162 8.52947 141.4 8.9V9C142.211 8.71715 143.049 8.51615 143.9 8.4C143.9 8.6 144 8.9 144 9.1C143.158 9.1686 142.322 9.30233 141.5 9.5V9.9C142.329 9.79148 143.164 9.72473 144 9.7C143.9 10 143.9 10.2 143.8 10.5C143.036 10.4146 142.268 10.3812 141.5 10.4V10.9C142.174 10.9435 142.843 11.0439 143.5 11.2C143.405 11.4534 143.27 11.6898 143.1 11.9C142.582 11.6881 142.047 11.5208 141.5 11.4V12.4C141.843 12.5464 142.177 12.7134 142.5 12.9C142.387 13.1129 142.213 13.2871 142 13.4C141.8 13.3 141.5 13.1 141.5 13.1V14.4C142.052 13.8813 142.554 13.3121 143 12.7C144 11.2 144.9 9.2 144.1 7.3C143.821 6.84909 143.441 6.46958 142.99 6.19178C142.538 5.91397 142.028 5.74556 141.5 5.7ZM159.1 8.6C159.279 8.97787 159.479 9.34514 159.7 9.7L160.5 10.1C161.118 11.046 161.558 12.0964 161.8 13.2C161.356 12.8961 160.887 12.6285 160.4 12.4C160.483 12.8954 160.517 13.3979 160.5 13.9C161 14.3 161.6 14.7 162.1 15.1C162.133 16.0046 162.066 16.9101 161.9 17.8C161.358 17.3039 160.791 16.8365 160.2 16.4C160.071 17.2713 159.801 18.1158 159.4 18.9C160 19.4 160.6 20 161.2 20.6C161.004 21.3086 160.7 21.9831 160.3 22.6L158.5 20.8C158.1 21.5 157.3 22.7 156.7 23.7C157.3 24.3 157.9 25 158.5 25.7C158.1 26.3 157.6 26.8 157.2 27.3C156.6 26.6 156.1 26 155.5 25.3C154.669 26.3307 153.731 27.2693 152.7 28.1C153.3 28.9 154.3 30.2 154.3 30.2H154.8C155.816 29.284 156.784 28.316 157.7 27.3C159.952 24.7778 161.504 21.7091 162.2 18.4C162.548 16.7394 162.494 15.0196 162.042 13.3843C161.589 11.7489 160.752 10.2456 159.6 9L159.1 8.6ZM161.3 10.3C162.278 11.483 163.025 12.8401 163.5 14.3L162.7 13.7C162.816 14.2935 162.883 14.8955 162.9 15.5C163.312 15.7794 163.683 16.1161 164 16.5C164.117 17.5327 164.083 18.5769 163.9 19.6C163.556 19.1183 163.153 18.6816 162.7 18.3C162.549 19.2193 162.315 20.123 162 21C162.469 21.5035 162.903 22.038 163.3 22.6C163.067 23.327 162.766 24.0301 162.4 24.7C162.006 24.1041 161.572 23.536 161.1 23C160.505 24.0777 159.837 25.1135 159.1 26.1C159.598 26.6754 160.065 27.2762 160.5 27.9C160.1 28.5 159.6 29 159.2 29.6C158.7 29 158.3 28.4 157.8 27.7C157.152 28.4813 156.45 29.2164 155.7 29.9H159.4C161.765 27.2973 163.418 24.1285 164.2 20.7C164.621 19.0146 164.651 17.2551 164.287 15.5563C163.923 13.8576 163.175 12.2648 162.1 10.9C161.779 10.7847 161.5 10.5757 161.3 10.3ZM164.4 15.1C164.5 15.8 164.6 16.3 164.7 17.2C164.926 17.446 165.127 17.714 165.3 18C165.33 19.0373 165.263 20.0751 165.1 21.1L164.5 20.4C164.34 21.3605 164.071 22.2999 163.7 23.2L164.3 24.3C164.069 25.0597 163.768 25.7962 163.4 26.5C163.226 26.0986 162.99 25.7273 162.7 25.4C162.1 26.5 161.5 27.5 160.8 28.6L161.7 30H161.9C164.091 26.9598 165.343 23.3441 165.5 19.6C165.529 18.0301 165.15 16.4797 164.4 15.1ZM166.1 20.7C166 21.2 166 21.7 165.9 22.2L165.7 22C165.553 23.0281 165.284 24.0351 164.9 25L165.2 25.7C165 26.4 164.7 27.2 164.4 28C164.287 27.7236 164.153 27.4562 164 27.2C163.526 28.134 162.992 29.0359 162.4 29.9H163.8C164.546 28.4277 165.148 26.8873 165.6 25.3C165.974 23.7964 166.143 22.2489 166.1 20.7ZM166.1 24.5C165.786 26.0972 165.351 27.6684 164.8 29.2C164.762 29.1606 164.733 29.1132 164.716 29.0613C164.699 29.0094 164.693 28.9543 164.7 28.9C164.5 29.3 164.2 30 164.2 30H164.9C165.6 28.2451 166.005 26.3868 166.1 24.5ZM144.2 28.8C143.351 29.1767 142.483 29.5104 141.6 29.8V30H144.9L144.2 28.8ZM151.4 29C151.1 29.2 150.6 29.6 150.1 30H152C152 30 151.6 29.4 151.4 29Z" fill="white"/>
<path d="M117.1 11.6H120.5C124.2 11.6 125.7 13.1 125.7 15.9C125.7 18.8 124.2 20.2 120.5 20.2H117.1V11.6ZM112.6 23.8H120.5C127 23.8 130.2 20.8 130.2 15.9C130.2 11.2 127.3 8.1 120.5 8H112.6V23.8ZM93.7 17.5V20.4H104V23.8H89.3V8.1H104V11.5H93.7V14.3H102.4V17.5H93.7ZM75.7 11.6V23.8H71.2V11.6H65.4V8.1H81.5V11.6H75.7ZM53 8.1H57.5V23.8H53V8.1ZM38.9 8.1V17.5L29.7 8.1H25.8V23.8H30V14L39.7 23.8H43V8.1H38.9ZM17.2 16.9C17.2 21.7 14.2 24.1 8.6 24.1C3 24.1 0 21.7 0 16.9V8.1H4.5V16.9C4.5 19.3 5.9 20.5 8.7 20.5C11.5 20.5 12.8 19.3 12.8 16.9V8.1H17.3L17.2 16.9Z" fill="white"/>
</svg>
