<svg version="1" xmlns="http://www.w3.org/2000/svg" viewBox="0 0 600 400"><path d="M231.9 111.8l-74.2 176.9h-48.4L72.8 147.5c-.7-6.7-4.8-12.6-10.9-15.5-14.4-6.9-29.5-11.9-45.2-15l1.1-5.1h77.9c10.5 0 19.5 7.6 21.1 18l19.3 102.4 47.6-120.4h48.2zm65.4 0l-37.8 176.9h-45.8l37.8-176.9h45.8zm124.1 119.1c.2-46.7-64.5-49.3-64.1-70.1.2-6.4 6.2-13.1 19.4-14.8 15.5-1.5 31.1 1.3 45.1 7.9l8-37.5c-13.7-5.1-28.2-7.7-42.8-7.8-45.2 0-77.1 24-77.3 58.5-.3 25.5 22.7 39.6 40 48.2 17.8 8.7 23.8 14.2 23.7 22-.1 11.9-14.2 17.1-27.4 17.3-16.4.4-32.5-3.5-47-11.2l-8.3 38.8c16.2 6.3 33.5 9.5 50.9 9.4 48.2-.1 79.7-23.9 79.8-60.7zm119.5 57.8h42.3l-37-176.9h-39c-8.5-.1-16.3 5-19.5 12.9l-68.7 164h48.1l9.5-26.4h58.7l5.6 26.4zM489.8 226l24.1-66.4 13.8 66.4h-37.9z" fill="#989ca0"/></svg>