<svg version="1" id="Layer_1" xmlns="http://www.w3.org/2000/svg" viewBox="0 0 600 400"><style>.st0{fill:#989ca0}</style><g id="Group_2610_1_" transform="translate(13.554 13.787)"><path id="Path_9756_1_" class="st0" d="M284.7 214.4h-15v11.7h14.9c3.2.5 6.1-1.6 6.6-4.8.1-.4.1-.9.1-1.3 0-2.4-1.6-5.6-6.6-5.6z"/><path id="Path_9757_1_" class="st0" d="M336.2 214.4h-15v11h14.9c4.9 0 6.6-2.2 6.6-5.5.1-2.3-1.5-5.5-6.5-5.5z"/><path id="Path_9758_1_" class="st0" d="M184.3 214.4v9.1h26.4v9.2h-26.4v9.6h27.6l13.2-14.7-11.6-13.3-29.2.1z"/><path id="Path_9759_1_" class="st0" d="M257.7 248v-39.4l-17.2 19 17.2 20.4z"/><path id="Path_9760_1_" class="st0" d="M476.2 252.8h-25.1v-10.4h19.6c3.3 0 8.3 0 8.3-4.7 0-2.2-.9-3.6-4.4-4-1.6-.2-7.4-.6-8.3-.6-13.3-.4-16.4-7-16.4-15-.4-7.4 5.3-13.7 12.7-14.1H489.3v10.4h-18.4c-4.2 0-8.7-.5-8.7 4.2 0 3 2.2 3.6 5.1 3.9 1 0 7.5.3 8.4.3 12.4.6 15.2 6 15.8 12.4v-41.7h-28.1c-3.2.1-6.4 1-9.3 2.5v-2.5h-35.8c-3.2 0-6.4.9-9.2 2.5v-2.5h-54.9v2.7c-3.1-1.7-6.5-2.6-10-2.7h-42.7v2.4c-2.7-1.4-5.7-2.2-8.8-2.4H245l-9.2 10.2-9-10.2h-62.3v69h61.4l9.2-10.5 8.6 10.5h37.9v-16.7h11c3.1.1 6.2-.5 9.1-1.8v18.6h30.7v-18.7h1.4c1.5 0 2.2.3 2.2 1.9v16.7h98.3c3.1 0 6.1-.7 8.9-2v2h37c4.2.2 8.3-1.3 11.3-4.2v-17.5c-1.3 7.4-7.9 12.5-15.3 12zm-190.6-16.6h-16.1v16.5h-23l-14-16.2-14.4 16.1h-45.6v-48.8h47.1l13.3 15.2 13.7-15.1h42c7.4-.6 13.9 5 14.5 12.4.1.8.1 1.7 0 2.5.1 17.2-11.3 17.4-17.5 17.4zm68.7 6.5l.4 10h-11.6l-.3-8.9c-.1-4.1-1.7-8.3-5.9-8.3h-15.7v17.2h-12V204h31.1c7.1-.8 13.4 4.2 14.3 11.3.1.6.1 1.2.1 1.8.5 5.8-2.8 11.3-8.3 13.5 5.8.6 7.9 4.3 7.9 12.1zm45.8-28.3H373v9.1h26.4v9.2H373v9.6h27.1v10.2H361v-48.8h39l.1 10.7zm31.1 38.4h-25.1v-10.4h19.6c3.3 0 8.3 0 8.3-4.7 0-2.2-.9-3.6-4.4-4-1.6-.2-7.4-.6-8.3-.6-13.3-.4-16.4-7-16.4-15-.4-7.4 5.3-13.7 12.7-14.1H444.3v10.4h-18.4c-4.2 0-8.7-.5-8.7 4.2 0 3 2.2 3.6 5.1 3.9 1 0 7.5.3 8.4.3 14.7.7 15.9 8.1 15.9 15.9-.1 7.9-6.6 14.2-14.4 14.1-.4.1-.7 0-1 0z"/></g><g id="Group_2611_1_"><path id="Path_9761_1_" class="st0" d="M302.8 144h-15v11h14.9c4.9 0 6.7-2.2 6.7-5.5-.1-3.2-2.7-5.7-5.8-5.7-.3.1-.5.2-.8.2z"/><path id="Path_9762_1_" class="st0" d="M389.6 160.9h14.6l-7.5-17-7.1 17z"/><path id="Path_9763_1_" class="st0" d="M453.2 123.7v10l-5.9-10H415v10l-4.4-10h-50.3c-4.5 0-8.9 1.3-12.7 3.7v-3.7h-28.5v2.7c-3-1.8-6.4-2.7-9.8-2.7H196.1l-7.7 16.6-7.9-16.5h-35.9v9.7l-4.1-9.8h-29.3l-15.3 34.7v34h20.9l5-11.3h8.1l4.8 11.3H175v-5.6l2.7 5.6h21.6l2.5-5.2v5.2h95.1v-18.2h1.7s1.8-.2 1.8 2.2v16h47.4v-4.9c4.7 3 10 4.7 15.6 4.9h23.8l5.2-12.3h7.7l5.5 12.3H445v-11.9l7.4 12h31.7v-68.7l-30.9-.1zm-232.1 58.6h-11.9v-35.6l-16.4 35.6h-10.9l-16-36.2v36.2h-24.1l-4.7-10.9h-23.9l-4.7 10.9H95.9l21.3-48.7H133l20.9 46.9v-46.9h18.8l14.6 32.7 14.7-32.7h19.1v48.7zm47.7-38.2h-27.1v9.2H268v9.2h-26.4v9.6h27.1v10.2h-39.1v-48.7h39.1l.1 10.5zm52.1 28.2l.4 10h-11.6l-.3-8.9c-.1-4.1-1.7-8.3-5.9-8.3h-15.7v17.2h-12v-48.7H307c7.1-.8 13.4 4.2 14.3 11.3.1.6.1 1.2.1 1.8.5 5.8-2.8 11.3-8.3 13.5 5.6.6 7.8 4.3 7.8 12.1zm18.7 10h-11.9v-48.8h12l-.1 48.8zm135.4 0h-16.3l-21.5-35.7v35.7h-23.6l-4.7-10.9H385l-4.7 10.9h-15.8c-13.3 0-19.2-11.1-18.9-24.6.4-20 12.2-24.2 17.7-24.2H379v10.6h-7.4c-8 0-14.2.8-14.2 12.3v3.5c.1 8.6 4.6 10.6 7.4 11.2.7.2 7.7.2 7.7.2l16.5-37.8h15.8l20.4 45.8v-45.8h17.7l20.2 33.7v-33.7h12l-.1 48.8z"/><path id="Path_9764_1_" class="st0" d="M117.7 160.9h14.5l-7.4-17-7.1 17z"/></g></svg>