<svg version="1" id="Layer_1" xmlns="http://www.w3.org/2000/svg" viewBox="0 0 600 400"><style>.st0{fill:#989ca0}</style><path class="st0" d="M445.7 266.3c-37.4-1.7-72.6-26.1-80.6-68.1-3.9-19.9-2.5-39.4 5.3-58.2 9.6-22.5 26.5-37.3 49.2-45.5 8.6-3.1 19.4-4.9 26.6-5.2 7.2-.3 14.8-.1 17.2 0 24.9 2.7 44.9 13.4 58.8 34.5 5.7 8.7 9.1 18.3 10.7 28.5.4 2.7-.1 3.2-2.8 3.3h-38c-2.4 0-3.6-1.2-4.4-3.3-2.8-7.1-7.4-12.8-13.8-16.7-5.9-3.6-12.4-5.2-19.3-5.5-7.2-.3-14.2.4-20.9 3.5-10.4 4.8-17.4 12.8-21.1 23.5-5.5 15.6-5.3 31.3 2.7 46.1 7.8 14.3 19.7 22.2 36.4 22.3 8.2.1 15.8-1.6 22.7-6 6.8-4.3 11.5-10.4 14-18.1 1.3-3.9 1.6-4 5.7-4h35.6c1.3 0 2.7-.3 3.7.7v.5c-.5 8.4-2.9 16.4-6.3 24.2-5.6 12.8-14.4 23-26.1 30.6-10.4 6.8-21.9 11-34.4 12.6-3.6.5-10.8.5-10.8.5s-6.6.2-10.1-.2zM240.9 174.2c13.8 0 27.1-.3 40.5.1 10.2.3 16-5.7 18.6-12.8 2.4-7.1 2.3-14.2-1.1-21-3.2-6.6-8.7-10-16-10-20.1-.1-40.2 0-60.3 0-1.9 0-2.9-.4-3.7-2.3-5.7-12-11.6-23.9-17.4-36-.1-.4-.3-.8-.4-1.5h81.2c13.6 0 26.6 3.1 38 11.1 12.8 9.1 20.5 21.8 23.4 37 3.6 18.6.3 36-11.1 51.5-3.2 4.4-7 8.2-11.4 11.2-1.6 1.1-1.6 1.9-.7 3.5 11.5 18.7 23 37.4 34.5 56.2.5.9 1.1 1.9 1.6 2.8-.7.7-1.5.4-2 .4h-48.1c-1.7 0-2.8-.5-3.6-2.1-9.1-15.8-18.2-31.6-27.3-47.5-.7-1.2-1.3-1.7-2.8-1.7-3.6.1-7.1 0-10.7 0-.9 0-1.9.1-2.4-1.1-6.4-12.1-12.5-24.7-18.8-37.8zM243.2 258.3l-40.5-87c-12.2-26.2-24.3-52.3-36.5-78.5-.7-1.3-1.2-2-2.8-1.9-4.9.1-9.9.1-14.8 0-1.6 0-2.3.5-2.8 1.9-8.8 19.3-17.8 38.4-26.7 57.6-17.2 37.3-34.6 74.6-51.9 111.9-1.1 2.3-.5 2.5 1.6 2.5 13.6-.1 27.3-.1 40.8 0 1.7 0 2.5-.7 3.3-2.1 2.7-5.9 5.3-11.6 7.9-17.4.8-1.7 1.7-2.4 3.6-2.4 21.1.1 42.3.1 63.5 0 2 0 2.8.8 3.6 2.4 2.7 5.9 5.3 11.8 8 17.6.5 1.1.9 1.9 2.4 1.9H246c-1.1-2.5-1.9-4.5-2.8-6.5zm-73.3-53.1h-31.4c-1.9 0-2.5-.3-1.7-2.3 6.2-14.2 12.2-28.5 18.3-42.7.1-.3.4-.5.8-1.2 6.8 15.5 13.4 30.6 20.2 46.1-2.5.1-4.3.1-6.2.1zM84.2 305.7H73.4l-1.5 4.4h-5.6l9.4-25.9h6.4l9.4 25.9h-5.6l-1.7-4.4zm-9.4-4.9h8l-4-11.9-4 11.9zM96.6 297.2c0-8 5.6-13.4 12.7-13.4 5.5 0 8.6 3.1 10.3 6.3l-4.4 2.3c-1.1-2.1-3.2-3.7-5.9-3.7-4.1 0-7.4 3.6-7.4 8.6 0 4.9 3.2 8.6 7.4 8.6 2.7 0 4.8-1.6 5.9-3.7l4.4 2.3c-1.7 3.2-4.8 6.4-10.3 6.4-7.1-.3-12.7-5.8-12.7-13.7zM126.8 297.2c0-8 5.6-13.4 12.7-13.4 5.5 0 8.6 3.1 10.3 6.3l-4.4 2.3c-1.1-2.1-3.2-3.7-5.9-3.7-4.1 0-7.4 3.6-7.4 8.6 0 4.9 3.2 8.6 7.4 8.6 2.7 0 4.8-1.6 5.9-3.7l4.4 2.3c-1.7 3.2-4.8 6.4-10.3 6.4-7-.3-12.7-5.8-12.7-13.7zM167.2 300.8h-3.7v9.4h-5.1v-25.9h11.2c5.1 0 8.2 3.6 8.2 8.4 0 4.5-2.7 7.1-5.2 7.8l5.5 9.9h-5.9l-5-9.6zm1.6-11.9h-5.3v7.2h5.3c2 0 3.6-1.3 3.6-3.6 0-2.2-1.4-3.6-3.6-3.6zM187 284.1h17.1v4.8h-11.9v5.6h11.6v4.8h-11.6v6h11.9v4.8H187v-26zM213.5 284.1h9.5c7.6 0 12.8 5.2 12.8 13 0 7.9-5.2 13-12.8 13h-9.5v-26zm9.5 21.1c4.8 0 7.6-3.7 7.6-8.2 0-4.5-2.5-8.2-7.6-8.2h-4.4V305h4.4v.2zM244.9 284.1h5.1V310h-5.1v-25.9zM265.8 289.1h-7.1v-4.8H278v4.8h-7v21.1h-5.2v-21.1zM286.6 284.1h17.1v4.8h-11.9v5.6h11.6v4.8h-11.6v6h11.9v4.8h-17.1v-26zM313.2 284.1h9.5c7.6 0 12.8 5.2 12.8 13 0 7.9-5.2 13-12.8 13h-9.5v-26zm9.5 21.1c4.8 0 7.6-3.7 7.6-8.2 0-4.5-2.5-8.2-7.6-8.2h-4.4V305h4.4v.2zM374.6 305.7h-10.8l-1.5 4.4h-5.6l9.4-25.9h6.4l9.4 25.9h-5.6l-1.7-4.4zm-9.3-4.9h8l-4-11.9-4 11.9zM399.9 283.7c4.9 0 8.2 2.7 10 5.7l-4.3 2.5c-1.1-1.9-3.2-3.2-5.7-3.2-4.4 0-7.6 3.6-7.6 8.6 0 4.9 3.2 8.6 7.6 8.6 2.1 0 4.1-.9 5.2-2v-3.2h-6.4v-4.8h11.5v9.9c-2.4 2.9-5.9 4.9-10.3 4.9-7.1 0-12.8-5.3-12.8-13.5-.1-8.3 5.7-13.5 12.8-13.5zM419.7 284.1h17.1v4.8h-11.9v5.6h11.6v4.8h-11.6v6h11.9v4.8h-17.1v-26zM451.2 292.7v17.5h-5.1v-25.9h5.2l11.2 16.8v-16.8h5.1v25.9h-4.9l-11.5-17.5zM476.8 297.2c0-8 5.6-13.4 12.7-13.4 5.5 0 8.6 3.1 10.3 6.3l-4.4 2.3c-1.1-2.1-3.2-3.7-5.9-3.7-4.1 0-7.4 3.6-7.4 8.6 0 4.9 3.2 8.6 7.4 8.6 2.7 0 4.8-1.6 5.9-3.7l4.4 2.3c-1.7 3.2-4.8 6.4-10.3 6.4-7.1-.3-12.7-5.8-12.7-13.7zM514.1 299.5l-9.4-15.4h5.9l6 10.4 5.9-10.4h5.9l-9.2 15.4v10.7h-5.1v-10.7z"/></svg>