<svg xmlns="http://www.w3.org/2000/svg" width="123" height="40" viewBox="0 0 123 40" fill="none">
    <g clip-path="url(#clip0_5721_53059)">
        <path d="M16.9486 39.9946V30.9464H21.1073C21.9627 30.8902 22.8055 31.178 23.4513 31.747C23.6528 31.9476 23.8113 32.1878 23.9171 32.4527C24.0229 32.7176 24.0737 33.0016 24.0663 33.2872V33.3105C24.0773 33.7164 23.9717 34.1168 23.7623 34.4635C23.5529 34.8102 23.2487 35.0883 22.8863 35.2645C23.9005 35.5092 24.6011 36.443 24.5619 37.4937V37.5207C24.5619 39.1724 23.2321 40 21.2089 40L16.9486 39.9946ZM18.8666 38.2476H21.2089C22.0788 38.2476 22.6064 37.9399 22.6064 37.2688V37.2436C22.6064 36.6355 22.1554 36.2594 21.15 36.2594H18.8666V38.2476ZM18.8666 34.6042H20.683C21.5529 34.6042 22.1037 34.3217 22.1037 33.647V33.62C22.1037 33.0245 21.642 32.6898 20.8131 32.6898H18.8648L18.8666 34.6042ZM8.47606 39.9928V30.9464H12.633C13.4886 30.8906 14.3318 31.1785 14.977 31.747C15.3835 32.1537 15.6045 32.7096 15.5902 33.2872V33.3105C15.6013 33.7155 15.4964 34.1151 15.288 34.4614C15.0796 34.8077 14.7767 35.0859 14.4155 35.2627C14.9068 35.3822 15.3421 35.6694 15.6478 36.0756C15.9535 36.4818 16.1107 36.9821 16.0929 37.4919V37.5189C16.0929 39.158 14.7596 39.9928 12.7364 39.9928H8.47606ZM10.4012 38.2458H12.7364C13.6063 38.2458 14.1339 37.9399 14.1339 37.267V37.2436C14.1339 36.6355 13.6829 36.2594 12.674 36.2594H10.4012V38.2458ZM10.4012 34.6024H12.2177C13.0875 34.6024 13.6366 34.3199 13.6366 33.6452V33.6182C13.6366 33.0227 13.1767 32.688 12.346 32.688H10.403L10.4012 34.6024ZM0 39.9946V30.9464H4.16227C5.01774 30.8902 5.86048 31.178 6.50634 31.747C6.91276 32.1519 7.13558 32.7096 7.11953 33.2872V33.3105C7.13095 33.7158 7.02617 34.1158 6.81778 34.4624C6.6094 34.8091 6.30627 35.0876 5.94483 35.2645C6.43515 35.3847 6.86941 35.6719 7.17433 36.0776C7.47925 36.4834 7.63618 36.9829 7.61865 37.4919V37.5189C7.61865 39.158 6.29065 39.9928 4.26566 39.9928L0 39.9946ZM1.9216 38.2476H4.26566C5.13555 38.2476 5.6614 37.9399 5.6614 37.2688V37.2436C5.6614 36.6355 5.21042 36.2594 4.20327 36.2594H1.9216V38.2476ZM1.9216 34.6042H3.73802C4.60791 34.6042 5.15872 34.3217 5.15872 33.647V33.62C5.15872 33.0245 4.69882 32.6898 3.86637 32.6898H1.92338L1.9216 34.6042ZM8.9324 29.4225L8.15877 26.8946H4.11236L4.66139 25.0612H19.8506L20.3978 26.8946H16.355L15.5831 29.4225H8.9324ZM11.7756 23.7567C11.9128 23.5611 11.9687 23.3191 11.9314 23.0824C11.8941 22.8457 11.7665 22.6331 11.5759 22.4901L7.94308 19.8237C7.17301 19.2605 6.65607 18.4113 6.50455 17.4631C6.35303 16.5149 6.58299 15.5452 7.14271 14.7679L7.14627 14.7643L9.06252 12.0979L9.61155 12.4991C9.47582 12.6957 9.42165 12.938 9.46063 13.1744C9.4996 13.4107 9.62862 13.6223 9.82011 13.7639L13.453 16.4304C14.2248 16.9935 14.7418 17.8445 14.8933 18.7927C14.9218 18.9834 14.936 19.1778 14.936 19.3703C14.9343 20.1349 14.6918 20.8798 14.2462 21.4969L12.3228 24.1634L11.7756 23.7567ZM15.6847 18.665C16.0316 18.1874 16.2189 17.6109 16.2195 17.0187C16.2213 16.8676 16.2088 16.7182 16.1838 16.5689C16.126 16.204 15.9974 15.8542 15.8053 15.5395C15.6132 15.2249 15.3614 14.9517 15.0644 14.7355L10.4993 11.4016C9.94251 10.9973 9.47072 10.4855 9.1112 9.89597C8.75168 9.30641 8.51157 8.65074 8.40476 7.96689C8.36316 7.6912 8.3423 7.41273 8.34237 7.13386C8.34059 6.02915 8.6864 4.95142 9.33347 4.05901L12.248 0L12.6829 0.31846C12.4351 0.667506 12.3335 1.10291 12.4013 1.52753C12.469 1.95214 12.6972 2.33357 13.0448 2.58366L18.5582 6.62828C20.8755 8.33573 21.3925 11.6121 19.7133 13.9601L16.1161 18.9798L15.6847 18.665Z" fill="#045291"/>
        <path d="M34.3621 3.33203H35.6687V39.9927H34.3621V3.33203Z" fill="#045291"/>
        <path d="M62.7029 14.1992H64.53V23.816H62.7029V14.1992Z" fill="#045291"/>
        <path d="M68.3794 18.086V19.9302H58.8516V18.086H68.3794ZM58.6573 25.2558H55.9015L54.807 22.3789H49.7909L48.7552 25.2558H46.0671L50.9531 12.5912H53.6305L58.6573 25.2558ZM53.9924 20.2432L52.2633 15.5437L50.5699 20.2432H53.9924ZM75.4169 25.0399V12.593H80.884C81.7323 12.5554 82.5805 12.6681 83.3903 12.9258C83.9663 13.1533 84.4494 13.5705 84.7611 14.1097C85.1033 14.675 85.2818 15.3257 85.2763 15.9881C85.2968 16.8166 84.991 17.6196 84.426 18.2209C83.7074 18.8978 82.7806 19.3055 81.8003 19.376C82.1568 19.5361 82.4901 19.7448 82.7914 19.9949C83.3101 20.487 83.7653 21.0432 84.1461 21.6502L86.2923 25.0381H84.2335L82.6024 22.4491C82.1259 21.703 81.7337 21.1314 81.4259 20.7344C81.196 20.4142 80.9179 20.1335 80.6006 19.9014C80.3725 19.7491 80.1206 19.6366 79.8555 19.5685C79.5555 19.5204 79.2518 19.5005 78.9482 19.5092H77.0498V25.0399H75.4169ZM77.048 18.0878H80.556C81.1472 18.1095 81.7378 18.0305 82.303 17.8539C82.6969 17.7207 83.0338 17.4581 83.262 17.1072C83.4786 16.7757 83.5933 16.387 83.5917 15.9899C83.6 15.7157 83.5479 15.443 83.439 15.1916C83.3302 14.9402 83.1675 14.7163 82.9625 14.5361C82.3815 14.108 81.6666 13.9067 80.95 13.9694H77.0462L77.048 18.0878ZM93.4671 23.928C92.9883 24.358 92.4403 24.7024 91.8468 24.9464C91.3138 25.1479 90.7469 25.2468 90.1783 25.2432C89.3606 25.2986 88.5524 25.0395 87.9162 24.5181C87.6583 24.2859 87.4538 23.9995 87.3171 23.6791C87.1804 23.3586 87.1147 23.0119 87.1248 22.6632C87.1192 22.2412 87.2211 21.8249 87.4207 21.4541C87.6083 21.1026 87.8767 20.8015 88.2032 20.5761C88.5365 20.3512 88.9055 20.1821 89.2924 20.0759C89.7359 19.9714 90.1853 19.8944 90.6382 19.8456C91.5529 19.7609 92.457 19.5843 93.337 19.3184C93.3429 19.1085 93.3459 18.976 93.3459 18.9208C93.3958 18.4404 93.2407 17.96 92.9163 17.6038C92.4239 17.2239 91.8106 17.0395 91.1926 17.0856C90.6406 17.0437 90.0894 17.1757 89.615 17.4635C89.2211 17.8089 88.9555 18.2785 88.8628 18.7967L87.3761 18.5934C87.4751 18.0327 87.7008 17.5026 88.0357 17.0442C88.3888 16.6216 88.8518 16.3069 89.3726 16.1356C90.0249 15.9123 90.7106 15.8045 91.3993 15.8172C92.0301 15.7967 92.6595 15.8886 93.2585 16.0889C93.6614 16.2202 94.025 16.4559 94.3103 16.7726C94.5475 17.0761 94.7089 17.4328 94.7808 17.8125C94.845 18.2803 94.87 18.7517 94.8575 19.2213V21.2616C94.834 22.1618 94.8667 23.0626 94.9555 23.9586C95.0214 24.339 95.151 24.7053 95.3388 25.0417H93.7577C93.5954 24.6909 93.4956 24.3148 93.4653 23.928H93.4671ZM93.3423 20.5149C92.5416 20.8023 91.7108 20.996 90.8664 21.0925C90.4158 21.1412 89.9724 21.2432 89.5455 21.3965C89.3012 21.499 89.0932 21.6733 88.9483 21.8967C88.5989 22.4599 88.7059 23.1975 89.2014 23.6365C89.5845 23.9335 90.0619 24.0787 90.5437 24.045C91.087 24.055 91.6234 23.9217 92.0999 23.6581C92.5339 23.421 92.8832 23.0522 93.0981 22.6038C93.2856 22.1178 93.3688 21.5971 93.3423 21.0763V20.5149ZM100.526 23.6815L100.743 25.0309C100.367 25.1155 99.9841 25.1623 99.5991 25.1677C99.157 25.1911 98.7185 25.1011 98.321 24.905C98.039 24.7515 97.8148 24.5087 97.6828 24.2141C97.5198 23.6245 97.4559 23.0114 97.4939 22.4005V17.2134H96.3869V16.0259H97.4939V13.7913L99.0002 12.8755V16.0259H100.522V17.2134H99.0002V22.4868C98.9826 22.767 99.0091 23.0481 99.0786 23.3199C99.1321 23.444 99.223 23.5484 99.3388 23.6167C99.4983 23.6995 99.6768 23.7374 99.8558 23.7265C100.08 23.7247 100.303 23.7067 100.526 23.6743V23.6815ZM102.013 14.3598V12.593H103.526V14.3508L102.013 14.3598ZM102.013 25.0489V16.0259H103.526V25.0417L102.013 25.0489ZM105.831 25.0489V16.0259H107.193V17.3051C107.497 16.8273 107.92 16.4387 108.42 16.1781C108.92 15.9176 109.479 15.7944 110.041 15.8208C110.551 15.8154 111.057 15.9143 111.528 16.114C111.93 16.2708 112.281 16.5367 112.542 16.8823C112.776 17.2215 112.936 17.6065 113.013 18.0122C113.083 18.5043 113.111 19.0015 113.097 19.4984V25.0399H111.583V19.5559C111.604 19.0838 111.544 18.6115 111.407 18.1597C111.286 17.8494 111.065 17.5893 110.779 17.4221C110.459 17.2301 110.093 17.1323 109.72 17.1396C109.107 17.1288 108.512 17.3495 108.052 17.7585C107.78 18.0802 107.578 18.4553 107.457 18.86C107.336 19.2648 107.299 19.6904 107.35 20.1101V25.0399L105.831 25.0489ZM115.134 25.7956L116.606 26.0151C116.62 26.2083 116.672 26.3968 116.761 26.5688C116.849 26.7408 116.971 26.8928 117.12 27.0154C117.574 27.3213 118.113 27.4706 118.658 27.4401C119.23 27.476 119.797 27.3267 120.28 27.0154C120.668 26.7232 120.942 26.303 121.054 25.828C121.155 25.1796 121.192 24.5226 121.163 23.8668C120.866 24.2407 120.489 24.5413 120.06 24.7458C119.631 24.9504 119.161 25.0534 118.687 25.0471C118.14 25.0756 117.594 24.9691 117.097 24.7368C116.6 24.5045 116.167 24.1534 115.835 23.7139C115.148 22.782 114.792 21.6435 114.826 20.4825C114.817 19.665 114.974 18.8543 115.287 18.1004C115.564 17.4167 116.034 16.8301 116.64 16.4163C117.254 16.0115 117.974 15.8046 118.706 15.8208C119.211 15.8137 119.71 15.9268 120.163 16.1509C120.616 16.3751 121.011 16.7039 121.314 17.1108V16.0223H122.712V23.8183C122.772 24.8327 122.625 25.8488 122.279 26.8031C121.986 27.3987 121.516 27.8845 120.933 28.1903C120.232 28.5508 119.452 28.726 118.665 28.6995C117.749 28.7413 116.843 28.4845 116.082 27.9672C115.414 27.4545 115.054 26.6304 115.132 25.7866L115.134 25.7956ZM116.387 20.38C116.312 21.297 116.56 22.2114 117.088 22.9618C117.524 23.4782 118.163 23.7751 118.835 23.7769C119.507 23.7787 120.147 23.4854 120.587 22.9708C121.118 22.2362 121.368 21.3329 121.293 20.4267C121.359 19.5325 121.1 18.6437 120.566 17.9276C120.353 17.6654 120.086 17.4544 119.782 17.3103C119.479 17.1661 119.147 17.0924 118.811 17.0946C118.143 17.0928 117.512 17.4005 117.097 17.9276C116.58 18.6308 116.329 19.4974 116.389 20.371L116.387 20.38Z" fill="#045291"/>
    </g>
    <defs>
        <clipPath id="clip0_5721_53059">
            <rect width="122.727" height="40" fill="white"/>
        </clipPath>
    </defs>
</svg>
