<svg xmlns="http://www.w3.org/2000/svg" viewBox="0 0 313.8 389.6" fill="#989ca0" xmlns:v="https://vecta.io/nano"><path d="M217.3 389.6H24.1A24.113 24.113 0 0 1 0 365.5V24.1A24.22 24.22 0 0 1 24.3 0h193.1a24.113 24.113 0 0 1 24.1 24.1v21.4l-4.4 1.1V24.1a19.653 19.653 0 0 0-19.6-19.7H24.3A19.653 19.653 0 0 0 4.6 24v341.4a19.653 19.653 0 0 0 19.6 19.7h193.2a19.826 19.826 0 0 0 19.7-18.3h-.1v-214l4.4 1.1v211.5a24.134 24.134 0 0 1-24.1 24.2zm-63.1-159.2v62.7h29.2c12.5 0 25.6-5.4 23.5-19.8-1.2-8.2-4.5-10.2-11.2-13.1 5-2.9 8.1-7.2 8.1-13.1 0-11.8-9.7-16.6-20.2-16.6zm30.4 50.9h-17.1V267h17.1c12.6-.1 11.8 14.3 0 14.3zm-1.1-25.5h-15.9v-13.4h15.3c9.5-.1 9.9 13.4.6 13.4zm-38.1-8.8c0-11.8-9.7-16.6-20.2-16.6H95.7v62.7h29.2c12.5 0 25.6-5.4 23.5-19.8-1.2-8.2-4.5-10.2-11.2-13.1 5.1-3 8.2-7.2 8.2-13.2zm-36.4-4.7h15.3c9.6 0 10 13.4.7 13.4h-16zm17.1 39H109V267h17.1c12.5-.1 11.9 14.3 0 14.3zm-35.3-129l25.6 18.5c4.4 3.2 4.8 6.4 2.7 9.7l3.7 2.8 13-17.9c8-11.2 7.3-26.2-4.5-34.8l-25.9-19c-3.1-2.3-3.5-5.4-1.7-8.9L100 100l-13.8 19c-6.9 9.5-4.8 26.4 4.6 33.3zm8.3 67.3h46.6l5-17.3h28.6l-3.9-12.8H69.1l-3.7 12.8H94zm8.8-126.1l35.3 25.9c7.2 5.3 8.1 18.6 2.9 25.5l3.1 2.3 24.4-34.3c10.9-15.4 10.4-38.1-6.9-50.6l-37.8-27.5c-5.3-3.9-8-10.4-3.6-16.6l-3.3-2.3-21.4 29.8c-10 13.9-6.3 37.7 7.3 47.8zM90 273.3c-1.2-8.2-4.5-10.2-11.2-13.1 5-2.9 8.1-7.2 8.1-13.1 0-11.8-9.7-16.6-20.2-16.6H37.1v62.7h29.2c12.6-.1 25.8-5.6 23.7-19.9zm-39.4-31h15.3c9.6 0 10 13.4.7 13.4H50.7l-.1-13.4zm0 24.6h17.1c12.6 0 11.8 14.3 0 14.3H50.6zm8.7 92.6h-5.7v5.4h5.7a3.069 3.069 0 0 0 2.4-.8 2.973 2.973 0 0 0 .8-2c0-1.8-1-2.6-3.2-2.6zm-23.7-32.3a2.822 2.822 0 0 1-.4-1.5 8.331 8.331 0 0 0-.4 1.5 14.58 14.58 0 0 0-.7 1.9l-1.5 3.9h5l-1.5-3.9a13.322 13.322 0 0 0-.5-1.9zm25.6 27.9a1.741 1.741 0 0 0 .5-1.5 1.799 1.799 0 0 0-.7-1.5 2.877 2.877 0 0 0-2-.5h-5.6v4h5.7c1.2 0 1.8-.1 2.1-.5zm74.5-30.4h-2.4v12.9h2.3a16.682 16.682 0 0 0 3.1-.5 5.71 5.71 0 0 0 2.1-1.3 8.175 8.175 0 0 0 1.2-2 8.423 8.423 0 0 0 .4-2.7 6.393 6.393 0 0 0-1.6-4.8c-1.1-1.1-2.8-1.6-5.1-1.6zm-33.6 2.5a3.227 3.227 0 0 0-.8-2.1 3.986 3.986 0 0 0-2.4-.7h-5.8v5.4h5.8c2.1.2 3.2-.7 3.2-2.6zM7.7 312.3v53.1a16.516 16.516 0 0 0 16.5 16.5h193.1a16.516 16.516 0 0 0 16.5-16.5v-53.1zm143.5 8.1h4.5v21.1h-4.5zM40.9 341.6l-1.7-4.6H31l-1.7 4.6h-4.8l8.5-21.1h4.2l8.5 21.1zm6.4-5.9a13.666 13.666 0 0 1-.7-4.5 9.91 9.91 0 0 1 .7-4.5 15.126 15.126 0 0 1 2-3.5 11.911 11.911 0 0 1 3.1-2.3 10.974 10.974 0 0 1 4-.8 9.034 9.034 0 0 1 2.8.4 10.559 10.559 0 0 1 5.3 3.5l-3.1 2.9a7.384 7.384 0 0 0-5.2-2.5 4.558 4.558 0 0 0-2.3.5 5.088 5.088 0 0 0-1.6 1.3 8.714 8.714 0 0 0-1.1 7.5 5.291 5.291 0 0 0 1.1 2.1 4.976 4.976 0 0 0 1.7 1.5 4.558 4.558 0 0 0 2.3.5 7.653 7.653 0 0 0 5.4-2.7l3.2 2.8c-1.3 2.7-6 4.1-8.6 4.1a10.974 10.974 0 0 1-4-.8 9.451 9.451 0 0 1-3.1-2.1 11.403 11.403 0 0 1-1.9-3.4zm19.1 29.4a6.524 6.524 0 0 1-1.6 2.1 6.983 6.983 0 0 1-2.4 1.3 11.236 11.236 0 0 1-3.2.4h-9.8v-21.1h10a7.421 7.421 0 0 1 5 1.5 4.756 4.756 0 0 1 1.9 4.1 5.134 5.134 0 0 1-.7 2.4 4.621 4.621 0 0 1-1.7 1.7 3.92 3.92 0 0 1 2.1 1.7 5.21 5.21 0 0 1 .9 2.9 6.342 6.342 0 0 1-.5 3zm.8-33.9a9.91 9.91 0 0 1 .7-4.5 15.126 15.126 0 0 1 2-3.5 11.911 11.911 0 0 1 3.1-2.3 7.988 7.988 0 0 1 4-.8 9.034 9.034 0 0 1 2.8.4 10.559 10.559 0 0 1 5.3 3.5l-3.1 2.9a7.384 7.384 0 0 0-5.2-2.5 4.558 4.558 0 0 0-2.3.5 5.088 5.088 0 0 0-1.6 1.3 8.714 8.714 0 0 0-1.1 7.5 5.291 5.291 0 0 0 1.1 2.1 4.976 4.976 0 0 0 1.7 1.5 4.558 4.558 0 0 0 2.3.5 7.653 7.653 0 0 0 5.4-2.7l3.2 2.8c-1.3 2.7-6 4.1-8.6 4.1a10.974 10.974 0 0 1-4-.8 8.596 8.596 0 0 1-5.1-5.6 10.925 10.925 0 0 1-.6-4.4zm20.4 28.4h-.1a10.475 10.475 0 0 1-2.4 7.2 8.365 8.365 0 0 1-6.5 2.5 10.966 10.966 0 0 1-3.6-.7 7.29 7.29 0 0 1-4.5-5 11.409 11.409 0 0 1-.7-4.1v-11.7h4.4v11.8a5.764 5.764 0 0 0 1.2 4 4.38 4.38 0 0 0 6.6 0 5.764 5.764 0 0 0 1.2-4v-11.8h4.4v11.8zm.8-39.2h10.7a9.246 9.246 0 0 1 2.9.4 8.989 8.989 0 0 1 2.4 1.2 6.524 6.524 0 0 1 1.6 2.1 7.273 7.273 0 0 1 .7 2.9 6.795 6.795 0 0 1-1.1 3.9 7.227 7.227 0 0 1-3.7 2.5l4.9 8h-5.2L97 334l-4-.1v7.6h-4.5l-.1-21.1zm18.5 44.9a4.248 4.248 0 0 1-1.6 2.1 6.778 6.778 0 0 1-2.7 1.3 17.373 17.373 0 0 1-3.9.5 11.702 11.702 0 0 1-4.9-1.1 8.722 8.722 0 0 1-3.5-2.8l3.2-2.7a6.667 6.667 0 0 0 2.5 1.9 8.077 8.077 0 0 0 3.1.5 5.759 5.759 0 0 0 2.9-.5 1.965 1.965 0 0 0 .9-1.7 2.769 2.769 0 0 0-.1-.9 2.336 2.336 0 0 0-.7-.7 10.103 10.103 0 0 0-1.5-.7c-.7-.3-1.5-.4-2.5-.7l-2.8-.8a7.191 7.191 0 0 1-2.1-1.2 4.978 4.978 0 0 1-1.5-1.7 8.574 8.574 0 0 1-.5-2.7 6.367 6.367 0 0 1 .7-2.7 5.264 5.264 0 0 1 1.6-2 11.507 11.507 0 0 1 2.5-1.2 11 11 0 0 1 3.1-.4 11.661 11.661 0 0 1 4.5.9 12.111 12.111 0 0 1 3.5 2.4l-3.2 2.9a8.677 8.677 0 0 0-2.3-1.6 6.184 6.184 0 0 0-2.7-.5 7.569 7.569 0 0 0-1.5.1 3.552 3.552 0 0 0-.9.4c-.3.1-.4.4-.5.7a1.702 1.702 0 0 0-.1.7.75.75 0 0 0 0 .9c.1.3.4.4.7.7a6.943 6.943 0 0 0 1.3.5c.5.1 1.3.4 2.1.5l2.5.7a13.442 13.442 0 0 1 2.4 1.2 6.136 6.136 0 0 1 1.7 1.9 5.547 5.547 0 0 1 .7 2.8 7.774 7.774 0 0 1-.4 3zm2.8-44.9h15.4v4.1h-11v3.7h9.3v4.1h-9.3v5h11.6v4.1h-15.9v-21zm5.6 48.5h-4.4v-21.1h4.4zm22 0h-3.9l-8-11.6a9.129 9.129 0 0 1-.8-1.3c-.3-.4-.5-.8-.7-1.1v13.9h-4.2v-21h4.1l7.7 11.2a9.129 9.129 0 0 1 .8 1.3c.3.4.5.8.7 1.1V348h4.2l.1 20.9zm-2-27.2h-6.6v-21.3h7.2a16.068 16.068 0 0 1 4.4.5 8.011 8.011 0 0 1 3.5 1.9 9.38 9.38 0 0 1 2.3 3.3 11.755 11.755 0 0 1 .8 4.9 13.186 13.186 0 0 1-.9 4.8 11.521 11.521 0 0 1-2.5 3.3 12.979 12.979 0 0 1-3.7 1.9 17.564 17.564 0 0 1-4.5.7zm22.7 27.1h-15.9v-21.1h15.4v4.1h-11v3.7h9.3v4.1h-9.3v5H158zm17.4-3.7a4.248 4.248 0 0 1-1.6 2.1 6.778 6.778 0 0 1-2.7 1.3 17.373 17.373 0 0 1-3.9.5 11.702 11.702 0 0 1-4.9-1.1 8.722 8.722 0 0 1-3.5-2.8l2.9-2.5a6.667 6.667 0 0 0 2.5 1.9 8.077 8.077 0 0 0 3.1.5 5.759 5.759 0 0 0 2.9-.5 1.682 1.682 0 0 0 .9-1.7 2.769 2.769 0 0 0-.1-.9 2.336 2.336 0 0 0-.7-.7 10.092 10.092 0 0 0-1.5-.7c-.7-.3-1.5-.4-2.5-.7l-2.8-.8a7.194 7.194 0 0 1-2.1-1.2 4.977 4.977 0 0 1-1.5-1.7 8.573 8.573 0 0 1-.5-2.7 6.367 6.367 0 0 1 .7-2.7 5.264 5.264 0 0 1 1.6-2 11.507 11.507 0 0 1 2.5-1.2 11 11 0 0 1 3.1-.4 11.661 11.661 0 0 1 4.5.9 12.111 12.111 0 0 1 3.5 2.4l-3.2 2.9a8.677 8.677 0 0 0-2.3-1.6 6.184 6.184 0 0 0-2.7-.5 7.569 7.569 0 0 0-1.5.1 3.552 3.552 0 0 0-.9.4 1.794 1.794 0 0 0-.5.7 1.702 1.702 0 0 0-.1.7c0 .4.1.7.3.8.1.3.4.4.7.7a6.943 6.943 0 0 0 1.3.5c.5.1 1.3.4 2.1.5l2.5.7a13.442 13.442 0 0 1 2.4 1.2 6.137 6.137 0 0 1 1.7 1.9 5.547 5.547 0 0 1 .7 2.8 7.045 7.045 0 0 1-.4 2.9zm1.1-40.5h-6.4v17h-4.5v-17h-6.4v-4.1h17.3v4.1zm17.5 40.5a4.741 4.741 0 0 1-1.6 2.1 6.778 6.778 0 0 1-2.7 1.3 17.373 17.373 0 0 1-3.9.5 11.702 11.702 0 0 1-4.9-1.1 8.722 8.722 0 0 1-3.5-2.8l3.2-2.7a6.667 6.667 0 0 0 2.5 1.9 8.077 8.077 0 0 0 3.1.5 5.759 5.759 0 0 0 2.9-.5 1.682 1.682 0 0 0 .9-1.7 1.235 1.235 0 0 1-.4-.8 2.336 2.336 0 0 0-.7-.7 10.092 10.092 0 0 0-1.5-.7c-.7-.3-1.5-.4-2.5-.7l-2.8-.8a7.194 7.194 0 0 1-2.1-1.2 4.977 4.977 0 0 1-1.5-1.7 8.573 8.573 0 0 1-.5-2.7 6.367 6.367 0 0 1 .7-2.7 5.264 5.264 0 0 1 1.6-2 11.507 11.507 0 0 1 2.5-1.2 11 11 0 0 1 3.1-.4 11.661 11.661 0 0 1 4.5.9 12.111 12.111 0 0 1 3.5 2.4l-3.2 2.9a8.677 8.677 0 0 0-2.3-1.6 6.184 6.184 0 0 0-2.7-.5 7.569 7.569 0 0 0-1.5.1 3.552 3.552 0 0 0-.9.4 1.794 1.794 0 0 0-.5.7 1.702 1.702 0 0 0-.1.7c0 .4.1.7.3.8.1.3.4.4.7.7a6.943 6.943 0 0 0 1.3.5c.5.1 1.3.4 2.1.5l2.5.7a13.442 13.442 0 0 1 2.4 1.2 6.136 6.136 0 0 1 1.7 1.9 5.547 5.547 0 0 1 .7 2.8 7.774 7.774 0 0 1-.4 3zm1.3-23.5h-15.9v-21.1h15.4v4.1h-11v3.7h9.3v4.1h-9.3v5h11.6v4.2zm20.2-5.8a11.521 11.521 0 0 1-2.5 3.3 12.979 12.979 0 0 1-3.7 1.9 15.475 15.475 0 0 1-4.3.7h-6.6v-21.3h7.2a16.068 16.068 0 0 1 4.4.5 8.011 8.011 0 0 1 3.5 1.9 9.38 9.38 0 0 1 2.3 3.3 13.622 13.622 0 0 1 .8 4.9 11.255 11.255 0 0 1-1.1 4.8zm-10.1-11.1H203v12.9h2.3a10.588 10.588 0 0 0 3.1-.5 5.71 5.71 0 0 0 2.1-1.3 8.175 8.175 0 0 0 1.2-2 8.423 8.423 0 0 0 .4-2.7 6.393 6.393 0 0 0-1.6-4.8c-1.1-1.1-2.8-1.6-5.1-1.6z"/><path d="M254 159.5a60.176 60.176 0 0 1-14.6-1.8l-1.6-.4a59.828 59.828 0 0 1-.1-115.2l1.7-.4A59.804 59.804 0 1 1 254 159.5zm0-113.9a53.883 53.883 0 0 0-13.3 1.7l-1.6.4a54.114 54.114 0 0 0 .1 104.2l1.5.4A54.17 54.17 0 1 0 254 45.6zm-1.616 77.1l-3.6-12h-18.3l-3.6 12h-11.4l17.8-50.5h13l17.8 50.5zm-6.2-20.9l-5.7-18.3-.9-3.3c-.8 2.9-2.9 10.2-6.5 21.8h13.1zM208.3 290.9a1.707 1.707 0 0 0 1.9 1.4c1.2 0 1.7-.6 1.7-1.3 0-.8-.3-1.2-1.8-1.6-1.6-.4-2.2-.9-2.2-1.9s.7-1.8 2.3-1.8a2.19 2.19 0 0 1 2.4 1.8h-.7c-.1-.7-.6-1.2-1.7-1.2-.9 0-1.5.4-1.5 1.2 0 .7.4 1 1.7 1.3 2 .5 2.3 1.3 2.3 2.2 0 1.1-.8 2-2.5 2-1.8 0-2.5-1-2.6-2h.7zm11.9-1.2v-3.4h0c-.3 1-1.6 4.3-2.4 6.5h-.7l-2.3-6.5h0c.1.8.1 2.4.1 3.6v2.9h-.7v-7.1h1.1l2.3 6.2h0l2.4-6.2h1.1v7.1h-.7v-3.1zm60.754-211.154h7.129v35.267h-7.129z"/><path d="M266.885 99.744v-7.129h35.267v7.129z"/></svg>