<svg version="1" id="Layer_1" xmlns="http://www.w3.org/2000/svg" viewBox="0 0 600 400"><style>.st0{fill:#989ca0}</style><path class="st0" d="M178.5 136.4c-16 0-28.6 5.6-37.7 17-9.1 11.3-13.7 27-13.7 46.9 0 20.9 4.4 36.6 13.2 47.5 8.9 10.7 21.5 16 38.2 16 7.2 0 14.2-.7 21-2.2 6.8-1.4 13.8-3.3 21.1-5.5V280c-13.3 5.1-28.6 7.6-45.4 7.6-24.9 0-44.1-7.6-57.4-22.7-13.3-15.1-20.1-36.8-20.1-64.8 0-17.7 3.3-33.3 9.8-46.4 6.5-13.3 15.9-23.5 28.2-30.5 12.3-7 26.7-10.6 43.2-10.6 17.3 0 33.5 3.7 48.2 11l-10 23.2c-5.7-2.7-11.9-5.1-18.3-7.2-6.4-2.1-13.2-3.2-20.3-3.2zM357.8 239.1c0 15.1-5.5 27-16.4 35.6-11 8.6-26.1 12.9-45.2 12.9-19.3 0-35.1-3-47.3-9v-26.3c7.8 3.7 16 6.5 24.8 8.6s16.8 3.1 24.4 3.1c11.1 0 19.2-2.1 24.4-6.3 5.2-4.2 7.8-9.8 7.8-17 0-6.4-2.3-11.7-7.2-16.2-4.8-4.4-14.7-9.6-29.9-15.8-15.5-6.3-26.5-13.4-32.9-21.5s-9.5-17.7-9.5-29.1c0-14.2 5.1-25.4 15.1-33.5 10-8.2 23.6-12.3 40.7-12.3 16.3 0 32.6 3.5 48.6 10.7l-8.9 22.7c-15.1-6.4-28.7-9.5-40.6-9.5-9 0-15.8 2-20.5 5.9-4.7 3.9-7 9.1-7 15.5 0 4.4.9 8.2 2.7 11.3 1.8 3.1 5 6.1 9.3 8.9 4.3 2.7 12 6.5 23.1 11.1 12.5 5.2 21.6 10 27.5 14.6 5.9 4.6 10 9.6 12.8 15.3 2.9 5.8 4.2 12.6 4.2 20.3zM452 285.2h-27.8V138.8h-50.1v-23.9h128.1v23.9h-50.1v146.4h-.1z"/></svg>