<svg version="1" id="Layer_1" xmlns="http://www.w3.org/2000/svg" viewBox="0 0 600 400"><style>.st0{fill:#989ca0}</style><path id="Path_9780" class="st0" d="M556.3 176.9S406.5 282.6 132 330h424.3V176.9z"/><path id="Path_9782" class="st0" d="M65.7 71.7h-22v76.5h21.8c9.9.5 19.6-2.6 27.3-8.8 8.7-7.3 13.8-18 13.9-29.4 0-22.6-16.9-38.3-41-38.3zm17.4 57.5c-5.8 4.6-13.1 6.8-20.4 6.1h-4V84.7h4c7.4-.8 14.7 1.5 20.4 6.2 5.3 4.9 8.3 11.8 8.2 19 .1 7.3-2.9 14.3-8.2 19.3zm30.5-57.5h14.9v76.5h-14.9V71.7zm73.4 53.2c.3 13.6-10.5 24.9-24.1 25.2-.7 0-1.5 0-2.2-.1-10.8.3-21-5.3-26.5-14.6l9.6-9.3c2.9 6.3 9.3 10.3 16.3 10.2 6 .4 11.2-4.2 11.6-10.2v-.6c0-3.2-1.7-6.2-4.5-7.9-3.3-1.8-6.7-3.2-10.3-4.4-14-5.1-18.8-10.5-18.8-21 .3-12.4 10.6-22.2 23-21.9h.8c8.3-.1 16.3 3 22.5 8.5L176.6 89c-2.9-3.8-7.3-6.1-12.1-6.2-6.4 0-11.1 3.7-11.1 8.5 0 4.1 2.6 6.3 11.6 9.6 17 6.4 22 11.9 22 24zM232.4 70c6.4 0 12.7 1.6 18.4 4.7v17.6c-4.7-5.4-11.5-8.6-18.7-8.6-14 .2-25.2 11.8-25 25.8v.5c-.8 13.8 9.8 25.6 23.6 26.3h2.1c6.9 0 13.5-3.1 18-8.4v17.6c-5.8 2.9-12.2 4.5-18.7 4.5-21.9.4-39.9-17-40.3-38.8v-1.1c.1-22.2 18.2-40.1 40.4-40 0-.1.1-.1.2-.1zm159.8 1.7h16.2l-33 78.4h-8l-32.5-78.4h16.3l20.4 51.4 20.6-51.4zm23 0h42.3v12.9H430v17h26.3v12.9H430v20.7h27.4v12.9h-42.3l.1-76.4zm101.3 22.6c0-14.3-9.8-22.6-27.1-22.6h-22.1v76.5h14.9v-30.7h2l20.6 30.7h18.3l-24-32.2c10.6-1.5 18.2-11 17.4-21.7zm-29.9 12.6h-4.3V83.8h4.6c9.3 0 14.4 3.9 14.4 11.4-.1 7.6-5.2 11.7-14.7 11.7zM527 77.4c0-1.3-.9-2.1-2.5-2.1h-2.2V82h1.6v-2.6l1.9 2.6h2l-2.2-2.8c.8-.1 1.5-.9 1.4-1.8zm-2.8 1h-.3v-1.7h.3c.8 0 1.2.3 1.2.9s-.4.8-1.2.8zm.6-5.6c-3.3 0-5.9 2.6-6 5.8s2.6 5.9 5.8 6c3.3 0 5.9-2.6 6-5.8v-.1c0-3.2-2.6-5.8-5.8-5.9zm0 10.8c-2.7.1-4.9-2-5-4.6-.1-2.7 2-4.9 4.6-5 2.7-.1 4.9 2 5 4.6v.2c.1 2.5-2 4.7-4.6 4.8z"/><path id="Path_9783" class="st0" d="M200.5 169.1v27.6l-19.9-20.9v19.3h-3.4v-27.6s19.1 20 19.9 20.9V169l3.4.1zm27.1 3.2v-3.2h-13.8v26.2h13.8v-3.2h-10.4v-9.5h10.1v-3.2h-10.1v-7.1h10.4zm26.1-3.2h-15.5v3.2h6.2v22.9h3.4v-22.9h6.2v-3.2h-.3zm42.1 0l-6.5 18.7c-.5-1.2-8.3-20.5-8.3-20.5l-.2.6s-7.5 18.6-8 19.8l-6.5-18.7h-3.7l10.2 27.9s7.8-19.5 8.3-20.6c.5 1.2 8.3 20.6 8.3 20.6l10.2-27.9-3.8.1zm40.4 13.1c0 7.5-6 13.6-13.5 13.7-7.5 0-13.6-6-13.7-13.5 0-7.5 6-13.6 13.5-13.7h.1c7.5 0 13.6 6 13.6 13.5zm-3.4 0c-.1-5.6-4.7-10.2-10.3-10.1-5.6.1-10.2 4.7-10.1 10.3.1 5.6 4.6 10.1 10.2 10.1 5.7 0 10.3-4.6 10.2-10.3zm30.8 13.1h-.5l-3.7-.1s-7.5-10.9-7.5-11.1h-.4v11.2H348v-26.2h4c6.5 0 9.6 2.4 9.6 7.3.2 3.7-2.6 6.9-6.2 7.2.4.7 8.2 11.7 8.2 11.7zM351.4 181h.6c3.1 0 6.2-.5 6.2-4.3 0-4-3-4.3-6.2-4.3h-.6v8.6zm29.7.4l12.3-12.2h-4.6s-9.7 9.7-10.5 10.6v-10.6h-3.4v26.2h3.4V184c.2-.1.3-.2.4-.4.4.4 10.3 11.5 10.3 11.5l4.1.1h.6c.1.1-12.3-13.5-12.6-13.8z"/><path id="Path_9784" class="st0" d="M297.5 70.3c-22.1-.4-40.4 17.2-40.8 39.3-.8 22.5 16.8 41.4 39.3 42.2 22.5.8 41.4-16.8 42.2-39.3.8-22.5-16.8-41.4-39.3-42.2h-1.4zm0 63.8c-13.2.4-24.2-9.9-24.6-23.1v-1.2c-.1-13.6 10.8-24.7 24.3-24.8 13.6-.1 24.7 10.8 24.8 24.3.1 13.6-10.8 24.7-24.3 24.8h-.2z"/></svg>